<svg width="11" height="14" viewBox="0 0 11 14" fill="none" xmlns="http://www.w3.org/2000/svg">
<path d="M7.88914 3.643L4.7813 0.535156V2.6321C2.09011 2.96679 0 5.26181 0 8.04863C0 10.8354 2.08328 13.1305 4.7813 13.4652V12.0854C2.84146 11.7575 1.36609 10.0773 1.36609 8.04863C1.36609 6.01999 2.84146 4.3397 4.7813 4.01184V6.68254L7.88914 3.643ZM10.8809 7.36558C10.7648 6.41615 10.3891 5.50088 9.77434 4.70855L8.80442 5.67847C9.17326 6.19075 9.4055 6.77134 9.50113 7.36558H10.8809ZM6.14739 12.0786V13.4583C7.09682 13.3422 8.01892 12.9734 8.81125 12.3586L7.82767 11.375C7.31539 11.7439 6.74163 11.983 6.14739 12.0786ZM8.80442 10.4256L9.77434 11.3887C10.3891 10.5964 10.7648 9.6811 10.8809 8.73167H9.50113C9.4055 9.32592 9.17326 9.9065 8.80442 10.4256Z" fill="#FFAA00"/>
</svg>
