<svg width="233" height="189" viewBox="0 0 233 189" fill="none" xmlns="http://www.w3.org/2000/svg">
<g clip-path="url(#clip0_78_11829)">
<path d="M225.579 110.103C230.379 94.8067 232.734 78.6804 232.979 63.2151C233.24 46.8509 231.45 29.1595 220.534 16.893C209.859 4.8961 192.732 0.79844 176.622 0.100515C170.097 -0.179712 163.432 0.00534394 157.237 2.06211C144.729 6.21264 135.96 17.2155 124.864 24.2952C103.443 37.9629 74.5004 36.345 53.9109 51.2076C48.621 55.0303 44.0769 59.8312 40.3319 65.1555C25.32 86.4951 24.148 116.062 35.6067 139.474C47.0655 162.886 70.1109 179.874 95.5748 186.092C121.039 192.31 148.527 188.239 172.121 176.876C199.625 163.626 216.747 138.268 225.584 110.103H225.579Z" fill="#DEF6FF"/>
<path opacity="0.7" d="M225.579 110.103C230.379 94.8067 232.734 78.6804 232.979 63.2151C233.24 46.8509 231.45 29.1595 220.534 16.893C209.859 4.8961 192.732 0.79844 176.622 0.100515C170.097 -0.179712 163.432 0.00534394 157.237 2.06211C144.729 6.21264 135.96 17.2155 124.864 24.2952C103.443 37.9629 74.5004 36.345 53.9109 51.2076C48.621 55.0303 44.0769 59.8312 40.3319 65.1555C25.32 86.4951 24.148 116.062 35.6067 139.474C47.0655 162.886 70.1109 179.874 95.5748 186.092C121.039 192.31 148.527 188.239 172.121 176.876C199.625 163.626 216.747 138.268 225.584 110.103H225.579Z" fill="white"/>
<path d="M187.586 11.6376V118.716C187.586 121.899 184.986 124.479 181.774 124.479H37.8813C37.322 124.479 36.7786 124.4 36.2672 124.252C33.8433 123.559 32.0747 121.344 32.0747 118.716V11.6376C32.0747 8.44935 34.6744 5.86914 37.8813 5.86914H181.774C184.986 5.86914 187.586 8.44935 187.586 11.6376Z" fill="white"/>
<path d="M187.586 14.9473V118.716C187.586 121.899 184.986 124.479 181.774 124.479H37.8812C37.3219 124.479 36.7785 124.4 36.2671 124.252L187.586 14.9473Z" fill="#263238"/>
<path opacity="0.9" d="M187.586 14.9473V118.716C187.586 121.899 184.986 124.479 181.774 124.479H37.8812C37.3219 124.479 36.7785 124.4 36.2671 124.252L187.586 14.9473Z" fill="white"/>
<path d="M147.701 72.912L155.537 69.4012L153.864 60.0956L145.229 59.4082C144.142 56.5372 142.683 53.8142 140.887 51.3186L143.599 46.761L145.336 43.8371L138.613 37.2121L131.08 41.701C126.754 38.7401 121.843 36.7309 116.67 35.8057L114.502 27.2402H104.977L102.745 35.8691C99.8096 36.4507 96.9489 37.3654 94.2161 38.5921L87.392 32.7549L79.6036 38.0211L82.8425 46.3644C80.7809 48.4846 79.0016 50.8533 77.5367 53.4124L68.571 52.5136L65.3481 61.3962L72.7582 66.3927C72.396 68.4759 72.2202 70.5908 72.2308 72.7058C72.1722 73.5782 72.1722 74.4506 72.2308 75.323L64.3945 79.6903L66.8823 88.7845H75.7308C76.5778 90.598 77.574 92.3322 78.7033 93.9872C79.2787 94.8331 79.8913 95.658 80.5359 96.4563L76.7216 104.292L84.0305 110.378L91.0837 105.133C93.7686 106.671 96.6293 107.872 99.6125 108.707L101.03 117.172L110.523 118.007L113.373 110.024C116.478 109.712 119.541 109.04 122.487 108.02L128.518 114L136.775 109.273L134.5 101.12C136.897 99.1264 139.034 96.8317 140.855 94.3044L149.219 95.7954L153.246 87.2406L146.673 81.9797C147.381 79.0082 147.728 75.968 147.701 72.912ZM125.987 72.912C125.987 81.7682 118.753 88.9484 109.83 88.9484C104.023 88.9484 98.9306 85.9082 96.0806 81.3399C94.5517 78.8919 93.6727 75.9998 93.6727 72.912C93.6727 64.061 100.907 56.8809 109.83 56.8809C114.273 56.8809 118.295 58.6627 121.22 61.539C121.513 61.8298 121.795 62.1259 122.056 62.4378C124.485 65.2242 125.966 68.846 125.987 72.8115V72.912Z" fill="#DEF6FF" stroke="#263238" stroke-miterlimit="10"/>
<path opacity="0.2" d="M146.673 81.9805L153.247 87.2413L149.219 95.7962L140.856 94.3052C139.034 96.8325 136.897 99.1272 134.5 101.121L136.775 109.274L128.518 114L122.487 108.02C119.542 109.041 116.478 109.712 113.373 110.024L110.523 118.008L101.03 117.173L99.6126 108.708C96.6293 107.872 93.7686 106.672 91.0837 105.134L84.0306 110.379L76.7217 104.293L80.5359 96.4571C79.8913 95.6587 79.2787 94.8339 78.7034 93.9879L96.0806 81.3407C98.9307 85.9089 104.023 88.9491 109.83 88.9491C118.753 88.9491 125.987 81.769 125.987 72.9127V72.8123C125.966 68.8468 124.485 65.225 122.056 62.4386L143.599 46.7617L140.888 51.3194C142.683 53.815 144.142 56.5379 145.229 59.409L153.864 60.0963L155.537 69.402L147.701 72.9127C147.728 75.9688 147.381 79.009 146.673 81.9805Z" fill="black"/>
<path d="M180.362 48.1827L180.756 48.0029C181.209 47.8073 181.465 47.3209 181.374 46.8397L181.294 46.3639C181.214 45.8774 180.809 45.5126 180.314 45.4809L179.84 45.4439C179.456 45.4174 179.121 45.1848 178.956 44.8411C178.828 44.5715 178.689 44.3124 178.54 44.0586C178.348 43.7308 178.348 43.329 178.54 43.0011L178.785 42.5887C179.03 42.1658 178.961 41.6317 178.615 41.2828L178.274 40.9444C177.927 40.5901 177.379 40.5267 176.953 40.7858L176.532 41.0343C176.201 41.2246 175.797 41.2246 175.466 41.0343C174.784 40.6483 174.06 40.3522 173.298 40.1566C172.92 40.0614 172.627 39.76 172.531 39.3846L172.409 38.8929C172.291 38.4065 171.849 38.0628 171.343 38.0787H170.864C170.363 38.0628 169.915 38.4012 169.798 38.8876L169.665 39.4164C169.569 39.7865 169.287 40.0773 168.914 40.1777C168.648 40.2517 168.381 40.3311 168.131 40.4262C167.769 40.5584 167.358 40.4844 167.065 40.2306L166.639 39.8658C166.272 39.5432 165.728 39.5168 165.329 39.7917L164.95 40.0455C164.53 40.3205 164.364 40.8545 164.551 41.3198L164.743 41.8168C164.887 42.171 164.823 42.5782 164.578 42.8742C164.407 43.0752 164.247 43.2867 164.098 43.5034C163.88 43.826 163.496 44.0004 163.107 43.9581L162.575 43.9106C162.079 43.8577 161.616 44.1485 161.451 44.6138L161.28 45.0791C161.11 45.5338 161.269 46.0413 161.669 46.3163L162.159 46.66C162.473 46.8767 162.644 47.2469 162.606 47.6275C162.575 47.9025 162.564 48.1827 162.564 48.4576C162.553 48.8278 162.351 49.1661 162.031 49.3565L161.53 49.6314C161.083 49.8641 160.865 50.3716 160.998 50.8528L161.12 51.3128C161.243 51.7939 161.685 52.1217 162.186 52.1059H162.718C163.102 52.1059 163.459 52.3068 163.651 52.6346C163.794 52.8884 163.949 53.1316 164.114 53.3695C164.327 53.6815 164.359 54.0833 164.194 54.427L163.976 54.8764C163.752 55.3206 163.869 55.8546 164.258 56.1665L164.626 56.4732C165.004 56.7957 165.552 56.8116 165.952 56.5208L166.33 56.2564C166.639 56.0343 167.049 55.9973 167.396 56.156C167.667 56.2829 167.944 56.3992 168.227 56.5049C168.584 56.6371 168.839 56.9491 168.903 57.3192L168.983 57.7792C169.063 58.2656 169.468 58.6304 169.963 58.6621L170.453 58.7044C170.944 58.752 171.402 58.4559 171.561 57.9907L171.711 57.5782C171.838 57.2134 172.153 56.9491 172.536 56.8856C172.84 56.838 173.138 56.7746 173.431 56.6953C173.799 56.6001 174.198 56.7058 174.465 56.9755L174.779 57.2927C175.12 57.6417 175.658 57.7157 176.084 57.4672L176.505 57.2293C176.953 56.9966 177.171 56.4891 177.038 56.0079L176.921 55.5955C176.809 55.2201 176.91 54.813 177.192 54.538C177.411 54.3213 177.624 54.0939 177.821 53.856C178.071 53.5599 178.46 53.4224 178.838 53.4964L179.265 53.5758C179.749 53.6709 180.239 53.4224 180.442 52.973L180.644 52.5394C180.863 52.09 180.735 51.556 180.341 51.2493L180.021 50.9903C179.723 50.7576 179.574 50.3822 179.627 50.0068C179.68 49.6896 179.712 49.3723 179.728 49.0551C179.765 48.6691 180.005 48.336 180.362 48.1827ZM176.537 48.4576C176.537 51.4185 174.119 53.819 171.135 53.819C168.152 53.819 165.734 51.4185 165.734 48.4576C165.734 45.4968 168.152 43.0963 171.135 43.0963C174.108 43.0963 176.516 45.4756 176.526 48.4259L176.537 48.4576Z" fill="#DEF6FF" stroke="#263238" stroke-miterlimit="10"/>
<path d="M187.586 11.6376V11.9284H32.0747V11.6376C32.0747 8.44935 34.6744 5.86914 37.8813 5.86914H181.774C184.986 5.86914 187.586 8.44935 187.586 11.6376Z" fill="#263238"/>
<path d="M187.586 11.6376V118.716C187.586 121.899 184.986 124.479 181.774 124.479H37.8813C34.6744 124.479 32.0747 121.899 32.0747 118.716V11.6376C32.0747 8.44935 34.6744 5.86914 37.8813 5.86914H181.774C184.986 5.86914 187.586 8.44935 187.586 11.6376Z" stroke="#263238" stroke-linecap="round" stroke-linejoin="round"/>
<path d="M32.0747 11.6367H187.586" stroke="#263238" stroke-linecap="round" stroke-linejoin="round"/>
<path d="M45.0411 8.89896C45.0411 9.54401 44.5137 10.0675 43.8638 10.0675C43.2139 10.0675 42.6865 9.54401 42.6865 8.89896C42.6865 8.25391 43.2139 7.73047 43.8638 7.73047C44.5137 7.73047 45.0411 8.25391 45.0411 8.89896Z" fill="#DEF6FF"/>
<path d="M50.6241 8.89896C50.6241 9.54401 50.0968 10.0675 49.4468 10.0675C48.7969 10.0675 48.2695 9.54401 48.2695 8.89896C48.2695 8.25391 48.7969 7.73047 49.4468 7.73047C50.0968 7.73047 50.6241 8.25391 50.6241 8.89896Z" fill="#DEF6FF"/>
<path d="M56.2067 8.89896C56.2067 9.54401 55.6793 10.0675 55.0294 10.0675C54.3794 10.0675 53.8521 9.54401 53.8521 8.89896C53.8521 8.25391 54.3794 7.73047 55.0294 7.73047C55.6793 7.73047 56.2067 8.25391 56.2067 8.89896Z" fill="#DEF6FF"/>
<path d="M134.671 72.9118C134.671 86.4526 123.612 97.429 109.969 97.429C96.3258 97.429 85.2666 86.4526 85.2666 72.9118C85.2666 59.371 96.3258 48.3945 109.969 48.3945C123.553 48.3945 134.586 59.2758 134.671 72.7584V72.9118Z" stroke="#263238" stroke-width="4" stroke-miterlimit="10"/>
<path d="M226.357 17.6445H138.437C135.231 17.6445 132.631 20.2248 132.631 23.4077V42.7804C132.631 45.9633 135.231 48.5435 138.437 48.5435H226.357C229.564 48.5435 232.164 45.9633 232.164 42.7804V23.4077C232.164 20.2248 229.564 17.6445 226.357 17.6445Z" fill="white" stroke="#263238" stroke-miterlimit="10"/>
<path d="M150.056 32.9551H217.887" stroke="#263238" stroke-miterlimit="10"/>
<path d="M147.941 32.9564L158.654 25.459H185.934L197.063 32.9564" stroke="#263238" stroke-miterlimit="10"/>
<path d="M199.178 32.9565C199.178 34.1144 198.23 35.0555 197.063 35.0555C195.896 35.0555 194.948 34.1144 194.948 32.9565C194.948 31.7986 195.896 30.8574 197.063 30.8574C198.23 30.8574 199.178 31.7986 199.178 32.9565Z" fill="#DEF6FF" stroke="#263238" stroke-miterlimit="10"/>
<path d="M158.654 27.5575C159.822 27.5575 160.769 26.6177 160.769 25.4584C160.769 24.2992 159.822 23.3594 158.654 23.3594C157.486 23.3594 156.539 24.2992 156.539 25.4584C156.539 26.6177 157.486 27.5575 158.654 27.5575Z" fill="#DEF6FF" stroke="#263238" stroke-miterlimit="10"/>
<path d="M188.05 25.4584C188.05 26.6164 187.101 27.5575 185.935 27.5575C184.768 27.5575 183.82 26.6164 183.82 25.4584C183.82 24.3005 184.768 23.3594 185.935 23.3594C187.101 23.3594 188.05 24.3005 188.05 25.4584Z" fill="#DEF6FF" stroke="#263238" stroke-miterlimit="10"/>
<path d="M147.941 32.9551L158.654 40.4472H208.937L217.887 32.9551" stroke="#263238" stroke-miterlimit="10"/>
<path d="M177.145 40.4487C177.145 41.6066 176.197 42.5477 175.03 42.5477C173.863 42.5477 172.915 41.6066 172.915 40.4487C172.915 39.2908 173.863 38.3496 175.03 38.3496C176.197 38.3496 177.145 39.2908 177.145 40.4487Z" fill="#DEF6FF" stroke="#263238" stroke-miterlimit="10"/>
<path d="M160.769 40.4487C160.769 41.6066 159.821 42.5477 158.654 42.5477C157.487 42.5477 156.539 41.6066 156.539 40.4487C156.539 39.2908 157.487 38.3496 158.654 38.3496C159.821 38.3496 160.769 39.2908 160.769 40.4487Z" fill="#DEF6FF" stroke="#263238" stroke-miterlimit="10"/>
<path d="M211.047 40.4487C211.047 41.6066 210.098 42.5477 208.932 42.5477C207.765 42.5477 206.817 41.6066 206.817 40.4487C206.817 39.2908 207.765 38.3496 208.932 38.3496C210.098 38.3496 211.047 39.2908 211.047 40.4487Z" fill="#DEF6FF" stroke="#263238" stroke-miterlimit="10"/>
<path d="M217.887 35.0555C219.055 35.0555 220.002 34.1158 220.002 32.9565C220.002 31.7972 219.055 30.8574 217.887 30.8574C216.719 30.8574 215.772 31.7972 215.772 32.9565C215.772 34.1158 216.719 35.0555 217.887 35.0555Z" fill="#DEF6FF" stroke="#263238" stroke-miterlimit="10"/>
<path d="M150.056 32.9565C150.056 34.1144 149.108 35.0555 147.941 35.0555C146.774 35.0555 145.826 34.1144 145.826 32.9565C145.826 31.7986 146.774 30.8574 147.941 30.8574C149.108 30.8574 150.056 31.7986 150.056 32.9565Z" fill="#DEF6FF" stroke="#263238" stroke-miterlimit="10"/>
<path d="M86.2474 82.7246H35.5967C32.3898 82.7246 29.79 85.3049 29.79 88.4878V138.759C29.79 141.942 32.3898 144.523 35.5967 144.523H86.2474C89.4543 144.523 92.0541 141.942 92.0541 138.759V88.4878C92.0541 85.3049 89.4543 82.7246 86.2474 82.7246Z" fill="white" stroke="#263238" stroke-miterlimit="10"/>
<path d="M53.1391 118.006L45.0737 133.561H81.6235" stroke="#263238" stroke-linecap="round" stroke-linejoin="round"/>
<path d="M81.6235 94.498L64.5659 105.755L81.6235 110.846" stroke="#263238" stroke-linecap="round" stroke-linejoin="round"/>
<path d="M85.6562 90.4961H77.5908V98.5011H85.6562V90.4961Z" fill="#DEF6FF" stroke="#263238" stroke-miterlimit="10"/>
<path d="M85.6562 106.844H77.5908V114.849H85.6562V106.844Z" fill="#DEF6FF" stroke="#263238" stroke-miterlimit="10"/>
<path d="M68.5985 101.752H60.5332V109.757H68.5985V101.752Z" fill="#DEF6FF" stroke="#263238" stroke-miterlimit="10"/>
<path d="M57.1718 114.004H49.1064V122.009H57.1718V114.004Z" fill="#DEF6FF" stroke="#263238" stroke-miterlimit="10"/>
<path d="M49.1064 129.559H41.041V137.564H49.1064V129.559Z" fill="#DEF6FF" stroke="#263238" stroke-miterlimit="10"/>
<path d="M85.6562 129.559H77.5908V137.564H85.6562V129.559Z" fill="#DEF6FF" stroke="#263238" stroke-miterlimit="10"/>
<path d="M56.724 58.5039H6.07322C2.86631 58.5039 0.266602 61.0842 0.266602 64.2671V114.539C0.266602 117.722 2.86631 120.302 6.07322 120.302H56.724C59.9309 120.302 62.5306 117.722 62.5306 114.539V64.2671C62.5306 61.0842 59.9309 58.5039 56.724 58.5039Z" fill="white" stroke="#263238" stroke-miterlimit="10"/>
<path d="M48.2699 64.4844H6.85107V67.6673H48.2699V64.4844Z" fill="#DEF6FF"/>
<path d="M30.7807 69.7285H6.85107V72.9115H30.7807V69.7285Z" fill="#DEF6FF"/>
<path d="M20.787 74.9688H6.85107V78.1517H20.787V74.9688Z" fill="#DEF6FF"/>
<path d="M29.7899 80.2148H6.85107V83.3978H29.7899V80.2148Z" fill="#DEF6FF"/>
<path d="M42.6071 85.4531H6.85107V88.6361H42.6071V85.4531Z" fill="#DEF6FF"/>
<path d="M30.7807 90.6992H6.85107V93.8822H30.7807V90.6992Z" fill="#DEF6FF"/>
<path d="M23.5464 95.9395H6.85107V99.1224H23.5464V95.9395Z" fill="#DEF6FF"/>
<path d="M33.8812 101.184H6.85107V104.367H33.8812V101.184Z" fill="#DEF6FF"/>
<path d="M39.6185 106.424H6.85107V109.607H39.6185V106.424Z" fill="#DEF6FF"/>
<path d="M48.2699 111.668H6.85107V114.851H48.2699V111.668Z" fill="#DEF6FF"/>
<path opacity="0.3" d="M48.2699 64.4844H6.85107V67.6673H48.2699V64.4844Z" fill="black"/>
<path opacity="0.3" d="M30.7807 69.7285H6.85107V72.9115H30.7807V69.7285Z" fill="black"/>
<path opacity="0.3" d="M20.787 74.9688H6.85107V78.1517H20.787V74.9688Z" fill="black"/>
<path opacity="0.3" d="M29.7899 80.2148H6.85107V83.3978H29.7899V80.2148Z" fill="black"/>
<path opacity="0.3" d="M42.6071 85.4531H6.85107V88.6361H42.6071V85.4531Z" fill="black"/>
<path opacity="0.3" d="M30.7807 90.6992H6.85107V93.8822H30.7807V90.6992Z" fill="black"/>
<path opacity="0.3" d="M23.5464 95.9395H6.85107V99.1224H23.5464V95.9395Z" fill="black"/>
<path opacity="0.3" d="M33.8812 101.184H6.85107V104.367H33.8812V101.184Z" fill="black"/>
<path opacity="0.3" d="M39.6185 106.424H6.85107V109.607H39.6185V106.424Z" fill="black"/>
<path opacity="0.3" d="M48.2699 111.668H6.85107V114.851H48.2699V111.668Z" fill="black"/>
<path d="M33.5243 53.0742H48.5948C50.1078 53.0742 51.3383 54.2956 51.3383 55.7972V58.5043H30.7808V55.7972C30.7808 54.2956 32.0113 53.0742 33.5243 53.0742Z" fill="white" stroke="#263238" stroke-miterlimit="10"/>
<path d="M23.3331 53.0742H38.2279C39.7941 53.0742 41.0619 54.3326 41.0619 55.8871V58.5043H20.499V55.8871C20.499 54.3326 21.7669 53.0742 23.3331 53.0742Z" fill="#DEF6FF" stroke="#263238" stroke-miterlimit="10"/>
<path d="M11.88 53.0742H27.137C28.602 53.0742 29.7899 54.2533 29.7899 55.7073V58.5043H9.22705V55.7073C9.22705 54.2533 10.415 53.0742 11.88 53.0742Z" fill="white" stroke="#263238" stroke-miterlimit="10"/>
<path d="M205.858 166.363H217.173" stroke="#263238" stroke-linecap="round" stroke-linejoin="round"/>
<path d="M27.5576 166.363H199.902" stroke="#263238" stroke-linecap="round" stroke-linejoin="round"/>
<path d="M202.747 159.785C202.747 159.785 204.755 158.156 205.709 159.938C206.535 161.477 204.558 163.201 202.31 163.195V164.496C202.31 164.496 207.131 164.623 207.504 160.594C207.877 156.565 202.747 157.675 202.747 157.675V159.785Z" fill="#DEF6FF" stroke="#263238" stroke-linecap="round" stroke-linejoin="round"/>
<path d="M202.582 166.342H192.924L191.48 154.303H204.036L202.582 166.342Z" fill="#DEF6FF" stroke="#263238" stroke-linecap="round" stroke-linejoin="round"/>
<path d="M204.015 153.727H191.496C191.131 153.727 190.835 154.02 190.835 154.382V154.446C190.835 154.808 191.131 155.101 191.496 155.101H204.015C204.38 155.101 204.675 154.808 204.675 154.446V154.382C204.675 154.02 204.38 153.727 204.015 153.727Z" fill="white" stroke="#263238" stroke-linecap="round" stroke-linejoin="round"/>
<path d="M196.115 152.416C196.115 152.416 200.558 149.773 199.109 146.738C197.66 143.703 192.759 141.704 192.759 136.983C192.759 132.917 197.116 131.41 199.961 129.781" stroke="#263238" stroke-linecap="round" stroke-linejoin="round"/>
<path d="M197.574 132.658C196.418 133.435 195.593 134.683 195.332 136.042C195.071 137.401 195.374 138.86 196.163 140.008" stroke="#263238" stroke-linecap="round" stroke-linejoin="round"/>
<path d="M199.993 144.654C200.872 146.32 201.122 148.308 200.68 150.137" stroke="#263238" stroke-linecap="round" stroke-linejoin="round"/>
<path d="M81.0478 165.37C81.0478 165.37 80.8453 161.917 77.7769 160.701C74.7084 159.485 73.0676 159.987 66.2169 161.817C61.9019 162.938 57.4803 163.62 53.0215 163.847V165.37H81.0478Z" fill="white" stroke="#263238" stroke-linecap="round" stroke-linejoin="round"/>
<path d="M80.936 165.37C80.936 165.37 81.1385 161.917 84.2069 160.701C87.2754 159.485 88.9108 159.987 95.7669 161.817C100.082 162.938 104.503 163.62 108.957 163.847V165.37H80.936Z" fill="white" stroke="#263238" stroke-linecap="round" stroke-linejoin="round"/>
<path d="M110.097 164.762H52.3076V165.877H110.097V164.762Z" fill="#263238" stroke="#263238" stroke-linecap="round" stroke-linejoin="round"/>
<path d="M82.4272 165.306C82.9653 163.678 84.2385 162.308 85.8313 161.637" stroke="#263238" stroke-linecap="round" stroke-linejoin="round"/>
<path d="M84.1748 165.063C84.9792 163.662 86.4229 162.642 88.021 162.351C89.9335 162.002 91.8779 162.652 93.6785 163.377C95.4791 164.101 98.6114 165.058 100.556 165.063" stroke="#263238" stroke-linecap="round" stroke-linejoin="round"/>
<path d="M64.166 164.746C66.0785 164.545 67.959 164.075 69.7382 163.361C70.8356 162.917 71.9064 162.377 73.0571 162.103C74.2077 161.822 75.4916 161.833 76.5038 162.446C76.9672 162.726 77.3508 163.118 77.6917 163.541C78.1499 164.112 78.5281 164.741 78.8157 165.412" stroke="#263238" stroke-linecap="round" stroke-linejoin="round"/>
<path d="M74.7349 163.197C75.3581 163.261 75.9228 163.61 76.3597 164.054C76.7965 164.498 77.1268 165.032 77.4517 165.566" stroke="#263238" stroke-linecap="round" stroke-linejoin="round"/>
<path d="M124.821 164.816C124.821 164.816 121.656 166.365 118.082 166.365C114.507 166.365 107.215 159.021 107.215 159.021C107.215 159.021 106.948 158.228 107.518 155.273C108.088 152.317 113.437 125.167 113.437 125.167C113.437 125.167 114.071 118.848 117.688 114.973C121.305 111.092 128.406 109.717 128.406 109.717C128.406 109.717 144.111 102.928 152.916 105.022C161.733 108.496 171.327 112.017 174.534 114.745C177.741 117.474 185.631 139.389 188.363 150.657C188.363 150.657 182.344 163.352 176.729 166.92C171.119 170.489 157.556 169.321 157.556 169.321L124.821 164.816Z" fill="#DEF6FF"/>
<path opacity="0.3" d="M122.823 142.759L120.554 112.838C120.554 112.838 115.786 114.472 114.609 119.817C113.431 125.168 106.335 158.108 107.209 159.023C108.077 159.942 112.723 163.876 112.723 163.876C112.723 163.876 117.714 168.117 122.828 165.584C127.942 163.051 122.828 142.759 122.828 142.759H122.823Z" fill="black"/>
<path opacity="0.3" d="M145.368 115.607C145.101 116.501 143.972 116.786 143.029 116.802C140.35 116.839 137.67 115.866 135.646 114.127C135.267 113.804 128.608 117.886 127.841 118.299C126.632 118.944 125.449 119.657 124.214 120.255C123.063 120.815 121.976 121.09 121.225 122.227C120.687 123.036 120.399 123.972 120.112 124.897C118.498 130.147 116.793 135.382 115.323 140.664C114.049 145.237 112.334 150.308 112.409 155.109C112.409 155.452 112.425 155.796 112.483 156.134C113.495 162.273 124.81 164.822 124.81 164.822C124.81 164.822 120.815 167.248 118.071 166.371C115.328 165.493 108.957 161.855 106.943 158.461L112.483 129.677C112.483 129.677 112.414 115.824 122.482 111.684C132.551 107.544 136.509 106.941 136.509 106.941L145.357 115.607H145.368Z" fill="black"/>
<path opacity="0.3" d="M182.535 160.857C182.535 160.857 186.93 156.034 188.358 150.657C188.358 150.657 181.614 128.604 179.877 124.48C178.141 120.356 175.301 115.639 173.314 113.625L170.096 159.022L169.42 168.571C169.42 168.571 173.021 168.724 175.552 167.545C178.082 166.366 182.535 160.851 182.535 160.851V160.857Z" fill="black"/>
<path d="M169.42 168.576L173.314 113.625C173.314 113.625 154.451 104.874 149.528 104.06C144.606 103.246 120.618 112.61 120.618 112.61L124.102 165.319" stroke="#263238" stroke-linecap="round" stroke-linejoin="round"/>
<path d="M135.406 77.2212L133.467 86.4423C133.467 86.4423 130.984 84.7028 130.457 86.6696C129.93 88.6365 131.544 91.3436 134.665 91.4917C134.665 91.4917 135.513 95.6686 138.277 98.5026C141.042 101.342 142.401 102.426 142.401 102.426C142.401 102.426 143.493 109.426 147.051 109.696C150.615 109.96 151.313 106.777 152.032 102.352C152.032 102.352 155.111 97.0486 156.011 94.1829C156.011 94.1829 159.794 91.5657 157.269 87.7482C157.269 87.7482 158.515 78.6224 156.347 77.0785C154.179 75.5346 139.183 76.333 135.401 77.2159L135.406 77.2212Z" fill="white"/>
<path d="M146.913 110.427C146.913 110.427 145.714 116.407 144.974 116.56C144.233 116.713 141.282 113.917 138.704 110.427C136.125 106.943 136.525 106.943 136.525 106.943C136.525 106.943 137.718 102.369 138.704 101.703C139.689 101.037 143.226 101.121 143.226 101.121L150.993 100.825C150.993 100.825 153.604 100.46 155.175 101.481C156.752 102.501 157.551 106.943 157.551 106.943C157.551 106.943 152.911 115.466 149.097 116.56C149.097 116.56 147.904 113.848 146.913 110.427Z" fill="white"/>
<path d="M121.465 155.325L122.493 140.986" stroke="#263238" stroke-miterlimit="10"/>
<path d="M157.551 79.8708C157.551 79.8708 153.146 81.568 149.246 81.2402C149.246 81.2402 145.128 85.3537 139.86 82.911C139.86 82.911 135.108 95.6798 146.002 104.034C146.002 104.034 137.26 101.237 134.666 91.4923C134.666 91.4923 131.57 91.9734 130.457 87.3735C130.457 87.3735 129.562 85.6022 133.648 85.5917L133.467 76.709L143.961 78.7975L151.489 77.7083L157.546 79.8761L157.551 79.8708Z" fill="#DEF6FF"/>
<path opacity="0.4" d="M157.551 79.8714C157.551 79.8714 153.146 81.5686 149.246 81.2408C149.246 81.2408 145.128 85.3543 139.86 82.9116C139.86 82.9116 136.019 96.5845 145.554 103.807C145.554 103.807 136.908 100.83 134.666 91.4982C134.666 91.4982 131.592 91.1756 130.457 87.3793C130.457 87.3793 129.562 85.6081 133.648 85.5975L133.467 76.7148L143.961 78.8033L151.489 77.7141L157.546 79.8819L157.551 79.8714Z" fill="white"/>
<path d="M145.56 97.5672C145.901 97.8421 146.263 98.0959 146.636 98.3285C146.881 98.4819 147.243 98.6035 147.419 98.3814C147.488 98.2968 147.499 98.1805 147.504 98.0695C147.658 95.5474 147.067 92.9989 147.429 90.498" stroke="#263238" stroke-linecap="round" stroke-linejoin="round"/>
<path d="M149.091 89.0645C149.091 89.0645 150.354 86.2992 153.609 88.7843" stroke="#263238" stroke-width="2" stroke-linecap="round" stroke-linejoin="round"/>
<path d="M145 89.5772C145 89.5772 142.619 86.6375 139.667 89.6671" stroke="#263238" stroke-width="2" stroke-linecap="round" stroke-linejoin="round"/>
<path d="M141.788 101.988C141.788 101.988 143.056 109.528 147.525 109.755C151.153 109.94 151.862 103.712 152 101.48" stroke="#263238" stroke-linecap="round" stroke-linejoin="round"/>
<path d="M134.085 87.2827C134.085 87.2827 132.114 84.9457 130.777 86.0878C129.44 87.2299 131.443 92.2528 134.671 91.4914" stroke="#263238" stroke-linecap="round" stroke-linejoin="round"/>
<path d="M142.614 98.5039C142.614 98.5039 143.946 100.275 146.407 100.825" stroke="#263238" stroke-linecap="round" stroke-linejoin="round"/>
<path d="M142.406 94.1299C142.688 94.1299 142.917 93.647 142.917 93.0513C142.917 92.4556 142.688 91.9727 142.406 91.9727C142.124 91.9727 141.895 92.4556 141.895 93.0513C141.895 93.647 142.124 94.1299 142.406 94.1299Z" fill="#263238"/>
<path d="M151.223 93.0513C151.223 93.6487 150.993 94.1299 150.711 94.1299C150.429 94.1299 150.2 93.6487 150.2 93.0513C150.2 92.4538 150.429 91.9727 150.711 91.9727C150.993 91.9727 151.223 92.4538 151.223 93.0513Z" fill="#263238"/>
<path d="M147.057 109.696C147.057 109.696 145.815 116.406 144.974 116.559C144.132 116.712 137.771 110.976 136.52 106.941C136.52 106.941 137.867 101.67 139.093 101.48C139.679 101.39 140.35 101.3 140.888 101.236" stroke="#263238" stroke-linecap="round" stroke-linejoin="round"/>
<path d="M147.057 109.697C147.057 109.697 148.261 116.406 149.097 116.56C149.933 116.713 156.299 110.976 157.551 106.942C157.551 106.942 156.033 101.708 154.877 101.269C153.71 100.825 152.613 100.629 152.613 100.629" stroke="#263238" stroke-linecap="round" stroke-linejoin="round"/>
<path d="M135.278 93.1836C136.093 94.5848 137.111 89.6305 136.679 88.0655C136.392 87.0239 135.827 86.0352 135.774 84.9566C135.72 83.7563 136.312 82.6301 136.738 81.504C137.164 80.3778 137.415 79.0348 136.749 78.0302C139.071 79.7168 141.857 80.621 144.723 80.8748C145.459 80.9382 146.215 80.9488 146.908 80.695C147.6 80.4412 148.213 79.8702 148.33 79.1458C151.015 79.4842 153.684 79.8332 156.369 79.4736C158.617 79.1723 162.117 78.6065 163.273 76.3277C164.967 72.9967 160.604 69.5388 158.031 68.3756C151.798 65.5522 143.429 65.0763 137.819 69.5018C137.223 69.9723 136.658 70.4852 136.013 70.8871C134.772 71.659 131.954 72.2565 130.969 73.3298C129.642 74.7732 131.304 85.9189 131.304 85.9189C131.304 85.9189 133.462 84.9248 134.357 88.2453C134.964 90.4977 134.442 91.7613 135.268 93.1836H135.278Z" fill="#263238"/>
<path d="M155.628 78.761C155.59 78.9037 155.569 79.0465 155.559 79.184C155.463 80.4423 155.686 81.7113 156.006 82.9274C156.15 83.472 156.352 84.0007 156.438 84.5506C156.645 85.8724 156.645 87.1466 157.625 88.2252C157.625 88.2252 159.511 81.6848 158.755 77.0109C158.664 76.4716 158.494 75.1074 157.657 75.3612C157.05 75.5463 156.608 76.5826 156.358 77.0849C156.097 77.5978 155.777 78.1847 155.633 78.761H155.628Z" fill="#263238"/>
<path d="M129.626 72.6217C130.452 72.0242 132.881 70.8663 135.411 71.8497C137.793 67.5353 141.532 65.1719 141.532 65.1719" stroke="#263238" stroke-linecap="round" stroke-linejoin="round"/>
<path opacity="0.47" d="M137.723 71.0347C137.723 71.0347 147.866 78.1937 154.008 76.4225C160.151 74.6513 158.435 69.4062 158.435 69.4062" stroke="white" stroke-linecap="round" stroke-linejoin="round"/>
<path opacity="0.47" d="M138.698 69.8309C138.698 69.8309 151.436 75.6417 153.577 67.4199" stroke="white" stroke-linecap="round" stroke-linejoin="round"/>
<path d="M141.788 101.988C141.788 101.988 144.212 106.662 146.108 106.583C148.005 106.503 151.494 101.48 151.494 101.48C151.494 101.48 149.614 103.886 146.758 104.135C144.883 104.299 141.788 101.988 141.788 101.988Z" fill="#263238"/>
<path d="M156.443 136.079L156.837 135.899C157.29 135.704 157.546 135.217 157.455 134.736L157.375 134.26C157.295 133.774 156.891 133.409 156.395 133.377L155.921 133.34C155.537 133.314 155.202 133.081 155.037 132.738C154.909 132.468 154.77 132.209 154.621 131.955C154.429 131.627 154.429 131.225 154.621 130.898L154.866 130.485C155.111 130.062 155.042 129.528 154.696 129.179L154.355 128.841C154.009 128.487 153.46 128.423 153.034 128.682L152.613 128.931C152.283 129.121 151.878 129.121 151.547 128.931C150.865 128.545 150.141 128.249 149.379 128.053C149.001 127.958 148.703 127.657 148.612 127.281L148.49 126.789C148.372 126.303 147.93 125.959 147.424 125.975H146.945C146.444 125.959 145.996 126.298 145.879 126.784L145.746 127.313C145.65 127.683 145.368 127.974 144.995 128.074C144.729 128.148 144.462 128.228 144.212 128.323C143.85 128.455 143.439 128.381 143.146 128.127L142.72 127.762C142.353 127.44 141.809 127.413 141.41 127.688L141.032 127.942C140.611 128.217 140.446 128.751 140.632 129.216L140.824 129.713C140.968 130.068 140.904 130.475 140.659 130.771C140.488 130.972 140.328 131.183 140.179 131.4C139.961 131.722 139.577 131.897 139.188 131.855L138.656 131.807C138.16 131.754 137.697 132.045 137.532 132.51L137.361 132.976C137.191 133.43 137.35 133.938 137.75 134.213L138.24 134.556C138.554 134.773 138.725 135.143 138.688 135.524C138.656 135.799 138.645 136.079 138.645 136.354C138.634 136.724 138.432 137.063 138.112 137.253L137.611 137.528C137.164 137.761 136.946 138.268 137.079 138.749L137.201 139.209C137.324 139.69 137.766 140.018 138.267 140.002H138.799C139.183 140.002 139.54 140.203 139.732 140.531C139.876 140.785 140.03 141.028 140.195 141.266C140.408 141.578 140.44 141.98 140.275 142.323L140.057 142.773C139.833 143.217 139.955 143.751 140.339 144.063L140.707 144.37C141.085 144.692 141.633 144.708 142.033 144.417L142.411 144.153C142.72 143.931 143.13 143.894 143.477 144.052C143.748 144.179 144.025 144.296 144.308 144.401C144.665 144.534 144.92 144.846 144.984 145.216L145.064 145.676C145.144 146.162 145.549 146.527 146.044 146.559L146.534 146.601C147.025 146.649 147.483 146.352 147.643 145.887L147.792 145.475C147.92 145.11 148.234 144.846 148.617 144.782C148.921 144.734 149.219 144.671 149.512 144.592C149.88 144.497 150.279 144.602 150.546 144.872L150.86 145.189C151.201 145.538 151.739 145.612 152.165 145.364L152.586 145.126C153.034 144.893 153.252 144.386 153.119 143.904L153.002 143.492C152.89 143.117 152.991 142.709 153.273 142.435C153.492 142.218 153.705 141.99 153.902 141.752C154.152 141.456 154.541 141.319 154.919 141.393L155.346 141.472C155.83 141.567 156.321 141.319 156.523 140.869L156.725 140.436C156.944 139.986 156.816 139.452 156.422 139.146L156.102 138.887C155.804 138.654 155.655 138.279 155.708 137.903C155.761 137.586 155.793 137.269 155.809 136.952C155.846 136.566 156.086 136.233 156.443 136.079ZM150.029 136.354C150.029 137.898 148.772 139.146 147.216 139.146C145.661 139.146 144.404 137.898 144.404 136.354C144.404 134.81 145.661 133.562 147.216 133.562C148.761 133.562 150.018 134.805 150.024 136.338V136.354H150.029Z" fill="#263238"/>
<path d="M121.577 153.391C121.198 153.903 120.65 154.231 120.197 154.665C118.908 155.886 117.773 157.631 117.251 159.328C116.995 160.148 116.942 161.057 117.267 161.856C117.89 163.373 119.877 164.949 121.47 163.949" stroke="#263238" stroke-linecap="round" stroke-linejoin="round"/>
<path d="M121.449 150.688C119.936 150.456 118.444 151.323 117.411 152.444C116.372 153.565 115.658 154.934 114.71 156.129" stroke="#263238" stroke-linecap="round" stroke-linejoin="round"/>
<path d="M121.332 166.127C119.494 166.502 117.022 166.307 115.333 165.487C114.113 164.895 113.053 164.028 112.009 163.166L108.078 159.935C107.444 159.417 106.746 158.682 107.007 157.91C107.007 157.91 113.575 123.527 114.609 119.815C115.802 115.522 120.618 112.604 120.618 112.604" stroke="#263238" stroke-linecap="round" stroke-linejoin="round"/>
<path d="M170.645 153.777C172.233 154.872 173.735 156.918 174.379 158.726C175.029 160.529 175.29 162.443 175.551 164.341C174.534 164.907 172.435 166.372 170.645 166.372" stroke="#263238" stroke-linecap="round" stroke-linejoin="round"/>
<path d="M170.869 150.901C172.462 150.483 174.044 151.556 175.248 152.677C176.452 153.798 177.693 155.099 179.334 155.273" stroke="#263238" stroke-linecap="round" stroke-linejoin="round"/>
<path d="M171.173 168.767C174.263 168.444 177.075 166.768 179.307 164.627C181.54 162.486 183.26 159.884 184.965 157.309C186.345 155.221 187.751 153.085 188.353 150.663C188.353 150.663 182.903 132.787 179.872 124.486C176.718 115.836 173.309 113.631 173.309 113.631" stroke="#263238" stroke-linecap="round" stroke-linejoin="round"/>
<path d="M170.869 150.901C173.682 148.559 177.992 150.457 181.012 152.022" stroke="#263238" stroke-linecap="round" stroke-linejoin="round"/>
<path d="M170.645 141.33H121.577V169.321H170.645V141.33Z" fill="white"/>
<path d="M170.869 169.32H121.332V170.785H170.869V169.32Z" fill="#263238"/>
<path d="M121.332 169.321L170.645 141.33L170.869 169.321H121.332Z" fill="#263238"/>
<path opacity="0.9" d="M121.332 169.321L170.645 141.33L170.869 169.321H121.332Z" fill="white"/>
<path d="M149.726 157.812C151.359 156.191 151.359 153.563 149.726 151.942C148.093 150.321 145.445 150.321 143.812 151.942C142.179 153.563 142.179 156.191 143.812 157.812C145.445 159.433 148.093 159.433 149.726 157.812Z" fill="#263238"/>
<path d="M170.645 141.33H121.577V169.321H170.645V141.33Z" stroke="#263238" stroke-linecap="round" stroke-linejoin="round"/>
<path d="M133.856 84.4492C133.856 84.4492 134.927 94.2307 136.296 95.9703C137.66 97.7151 142.054 104.102 146.833 104.007C151.611 103.912 154.733 97.8102 155.516 95.193C156.299 92.5811 157.077 88.9011 157.274 85.0255" stroke="#263238" stroke-linecap="round" stroke-linejoin="round"/>
<path d="M156.017 94.1827C156.017 94.1827 159.565 92.3639 157.274 87.748" stroke="#263238" stroke-linecap="round" stroke-linejoin="round"/>
</g>
<defs>
<clipPath id="clip0_78_11829">
<rect width="233" height="189" fill="white"/>
</clipPath>
</defs>
</svg>
