<svg width="205" height="200" viewBox="0 0 205 200" fill="none" xmlns="http://www.w3.org/2000/svg">
<g clip-path="url(#clip0_78_16627)">
<path d="M194.063 48.0168C183.01 31.2745 162.002 21.3272 141.691 23.2311C121.385 25.1351 102.695 38.7932 95.0969 57.2841C91.2177 66.7311 89.9862 77.3244 84.1844 85.7758C78.2366 94.4408 68.322 99.6087 58.5971 103.927C48.8723 108.245 38.6608 112.223 30.9851 119.484C23.3143 126.745 18.7926 138.388 23.3289 147.83C27.943 157.427 39.5953 161.264 48.006 167.967C56.4166 174.67 61.7706 184.53 70.3662 191.009C78.3048 196.993 88.5358 199.631 98.5672 199.611C108.599 199.592 118.474 197.066 127.844 193.579C156.916 182.752 184.304 162.6 195.903 134.405C217.382 82.1815 194.058 48.0168 194.058 48.0168H194.063Z" fill="#DEF6FF"/>
<g opacity="0.7">
<path d="M194.063 48.0168C183.01 31.2745 162.002 21.3272 141.691 23.2311C121.385 25.1351 102.695 38.7932 95.0969 57.2841C91.2177 66.7311 89.9862 77.3244 84.1844 85.7758C78.2366 94.4408 68.322 99.6087 58.5971 103.927C48.8723 108.245 38.6608 112.223 30.9851 119.484C23.3143 126.745 18.7926 138.388 23.3289 147.83C27.943 157.427 39.5953 161.264 48.006 167.967C56.4166 174.67 61.7706 184.53 70.3662 191.009C78.3048 196.993 88.5358 199.631 98.5672 199.611C108.599 199.592 118.474 197.066 127.844 193.579C156.916 182.752 184.304 162.6 195.903 134.405C217.382 82.1815 194.058 48.0168 194.058 48.0168H194.063Z" fill="white"/>
</g>
<path d="M155.008 179.415C155.008 179.415 162.066 179.377 169.892 168.492C176.731 158.977 163.755 129.519 156.473 122.743C149.197 115.967 135.028 152.974 136.678 162.348C139.019 175.705 149.109 179.071 155.013 179.411L155.008 179.415Z" fill="#DEF6FF"/>
<path d="M166.461 161.114L155.597 171.892L156.692 199.354H153.115C153.071 199.164 153.207 180.246 153.324 158.18L144.996 150.21C145.629 150.21 144.495 149.131 144.383 149.025L153.343 155.247C153.416 141.457 153.485 130.354 153.485 130.354L154.297 129.339L154.75 144.085L162.431 138.567C162.319 138.674 161.185 139.752 161.817 139.752L154.828 146.688L155.48 167.933L167.337 159.419C167.176 159.569 165.551 161.114 166.461 161.114Z" stroke="#263238" stroke-miterlimit="10"/>
<path d="M187.297 188.358C187.297 188.358 195.878 187.741 200.162 179.605C204.786 170.819 193.508 149.987 187.745 148.433C181.437 146.728 171.425 163.383 173.474 176.322C174.871 185.157 183.326 188.129 187.293 188.358H187.297Z" fill="#DEF6FF"/>
<path d="M193.741 172.421L187.755 177.167C187.565 166.02 187.414 157.122 187.414 157.122L186.655 156.291L186.382 167.671V167.919L181.315 163.941C181.315 163.941 182.128 164.767 181.714 164.771L186.338 169.789L186.027 182.874L178.356 176.846C178.356 176.846 179.505 178.012 178.916 178.017L185.959 185.662L185.925 187.172L185.881 188.799L185.637 199.121L188.125 199.096C188.066 195.779 188.013 192.297 187.954 188.814C187.906 185.851 187.852 182.888 187.808 180.032C187.808 179.824 187.798 179.62 187.798 179.411L193.299 173.407C192.807 173.412 193.746 172.421 193.746 172.421H193.741Z" stroke="#263238" stroke-miterlimit="10"/>
<path d="M176.604 194.74C175.806 194.103 174.365 194.113 173.11 194.171C173.202 193.37 173.538 192.573 173.635 191.772C173.733 190.971 173.548 190.106 172.754 189.547C171.372 188.576 168.938 188.95 167.03 189.509C167.293 187.619 165.278 185.788 162.591 185.497C159.9 185.205 156.907 186.517 156.118 188.353C155.028 187.313 152.852 186.9 151.041 187.391C149.231 187.881 147.936 189.232 148.029 190.538C146.637 190.446 145.084 190.378 143.93 190.98C142.237 191.864 142.353 193.652 141.049 194.803C140.197 194.584 139.199 195.06 138.761 195.643C138.318 196.221 138.245 196.882 137.973 197.503C137.428 198.747 135.617 198.897 133.889 199.441L177.13 199.796C178.069 199.5 178.873 198.854 178.834 198.164C178.795 197.469 177.631 196.906 176.731 197.251C177.047 197.26 177.544 195.478 176.614 194.735L176.604 194.74Z" fill="#DEF6FF"/>
<path d="M196.039 196.634C195.553 196.245 194.667 196.25 193.898 196.284C193.951 195.793 194.161 195.308 194.219 194.812C194.278 194.317 194.166 193.792 193.679 193.447C192.832 192.855 191.338 193.083 190.17 193.423C190.33 192.267 189.094 191.14 187.449 190.966C185.799 190.786 183.964 191.592 183.482 192.719C182.815 192.083 181.481 191.83 180.372 192.131C179.262 192.432 178.469 193.258 178.527 194.059C177.675 194.001 176.721 193.962 176.016 194.331C174.974 194.871 175.047 195.968 174.249 196.677C173.728 196.541 173.115 196.838 172.847 197.192C172.579 197.547 172.531 197.95 172.365 198.334C172.034 199.096 170.919 199.189 169.863 199.524L196.366 199.742C196.94 199.558 197.432 199.164 197.407 198.742C197.383 198.319 196.672 197.969 196.117 198.183C196.312 198.183 196.614 197.095 196.044 196.643L196.039 196.634Z" fill="#DEF6FF"/>
<path d="M88.998 112.728C87.7228 111.849 86.175 111.334 84.5055 111.334C80.1152 111.334 76.5621 114.889 76.5621 119.266V119.314C76.051 118.663 75.2577 118.246 74.3669 118.246C73.6028 118.246 72.9165 118.552 72.4103 119.047C72.0647 115.924 69.4169 113.495 66.1997 113.495C62.7682 113.495 59.9793 116.259 59.9452 119.678C59.6386 119.46 59.2687 119.334 58.8647 119.334C57.9253 119.334 57.1465 120.014 57.0054 120.907H101.234C101.234 117.828 98.7325 115.336 95.6467 115.336C94.2644 115.336 92.994 115.841 92.0206 116.677C91.7529 115.904 91.3683 115.181 90.8865 114.54" stroke="#263238" stroke-linecap="round" stroke-linejoin="round"/>
<path d="M165.005 54.6368C166.003 54.2871 167.079 54.0977 168.198 54.0977C173.523 54.0977 177.84 58.4107 177.84 63.7244V63.7827C178.459 62.991 179.422 62.4858 180.503 62.4858C181.428 62.4858 182.265 62.8598 182.878 63.4572C183.297 59.6687 186.509 56.7205 190.418 56.7205C194.584 56.7205 197.967 60.0719 198.006 64.2247C198.376 63.9575 198.828 63.807 199.32 63.807C200.459 63.807 201.403 64.6327 201.578 65.7158H147.907C147.907 61.9807 150.944 58.9547 154.687 58.9547C156.366 58.9547 157.904 59.5667 159.087 60.5819C159.578 59.1685 160.386 57.9056 161.433 56.8759" stroke="#263238" stroke-linecap="round" stroke-linejoin="round"/>
<path d="M0.287109 43.4511H53.9586C53.9586 39.716 50.9214 36.6901 47.1785 36.6901C45.4993 36.6901 43.9612 37.3021 42.7784 38.3172C41.4691 34.5481 37.8917 31.833 33.6669 31.833C28.3421 31.833 24.0248 36.1461 24.0248 41.4597V41.518C23.4067 40.7263 22.443 40.2212 21.3624 40.2212C20.4376 40.2212 19.6005 40.5952 18.9872 41.1926C18.5686 37.4041 15.3562 34.4558 11.4478 34.4558C7.28139 34.4558 3.89863 37.8072 3.85969 41.96C3.48978 41.6929 3.03712 41.5423 2.54553 41.5423C1.40658 41.5423 0.462331 42.368 0.287109 43.4511Z" fill="white" stroke="#263238" stroke-miterlimit="10"/>
<path d="M71.8169 62.3896L73.4766 72.7692" stroke="#DEF6FF" stroke-miterlimit="10"/>
<path d="M65.5234 66.0615L72.4496 74.4351" stroke="#DEF6FF" stroke-miterlimit="10"/>
<path d="M64.4282 73.168L70.9114 75.6985" stroke="#DEF6FF" stroke-miterlimit="10"/>
<path d="M31.5352 91.2457V83.2412" stroke="#263238" stroke-linecap="round" stroke-linejoin="round"/>
<path d="M12.6599 91.2461H31.5352V85.3447H12.6599V91.2461Z" fill="white" stroke="#263238" stroke-linecap="round" stroke-linejoin="round"/>
<path d="M12.6597 91.2457V83.2412" stroke="#263238" stroke-linecap="round" stroke-linejoin="round"/>
<path d="M79.0739 199.471H117.224L117.224 133.181H79.0739V199.471Z" fill="white" stroke="#263238" stroke-linecap="round" stroke-linejoin="round"/>
<path d="M41.0505 199.471H79.2002L79.2002 108.604H41.0505L41.0505 199.471Z" fill="white" stroke="#263238" stroke-linecap="round" stroke-linejoin="round"/>
<path d="M2.72088 199.471H40.8706L40.8706 91.0801H2.72088L2.72088 199.471Z" fill="white" stroke="#263238" stroke-linecap="round" stroke-linejoin="round"/>
<path d="M33.7739 97.9141V195.367" stroke="#DEF6FF" stroke-linecap="round" stroke-linejoin="round"/>
<path d="M25.4316 97.9141V195.367" stroke="#DEF6FF" stroke-linecap="round" stroke-linejoin="round"/>
<path d="M17.0889 97.9141V195.367" stroke="#DEF6FF" stroke-linecap="round" stroke-linejoin="round"/>
<path d="M8.74658 97.9141V195.367" stroke="#DEF6FF" stroke-linecap="round" stroke-linejoin="round"/>
<path d="M72.8677 113.296V122.364V131.427V140.496V149.559V158.627V167.695V176.759V185.827V194.9V195.07" stroke="#DEF6FF" stroke-linecap="round" stroke-linejoin="round"/>
<path d="M64.5254 113.296V122.364V131.427V140.496V149.559V158.627V167.695V176.759V185.827V194.9V195.07" stroke="#DEF6FF" stroke-linecap="round" stroke-linejoin="round"/>
<path d="M56.1777 113.296V122.364V131.427V140.496V149.559V158.627V167.695V176.759V185.827V194.9V195.07" stroke="#DEF6FF" stroke-linecap="round" stroke-linejoin="round"/>
<path d="M47.8354 113.296V122.364V131.427V140.496V149.559V158.627V167.695V176.759V185.827V194.9V195.07" stroke="#DEF6FF" stroke-linecap="round" stroke-linejoin="round"/>
<path d="M72.8679 113.296H71.2325H63.4351H55.6328H47.8354" stroke="#DEF6FF" stroke-linecap="round" stroke-linejoin="round"/>
<path d="M72.8679 122.364H71.2325H63.4351H55.6328H47.8354" stroke="#DEF6FF" stroke-linecap="round" stroke-linejoin="round"/>
<path d="M72.8679 131.428H71.2325H63.4351H55.6328H47.8354" stroke="#DEF6FF" stroke-linecap="round" stroke-linejoin="round"/>
<path d="M72.8679 140.495H71.2325H63.4351H55.6328H47.8354" stroke="#DEF6FF" stroke-linecap="round" stroke-linejoin="round"/>
<path d="M72.8679 149.559H71.2325H63.4351H55.6328H47.8354" stroke="#DEF6FF" stroke-linecap="round" stroke-linejoin="round"/>
<path d="M72.8679 158.627H71.2325H63.4351H55.6328H47.8354" stroke="#DEF6FF" stroke-linecap="round" stroke-linejoin="round"/>
<path d="M72.8679 167.695H71.2325H63.4351H55.6328H47.8354" stroke="#DEF6FF" stroke-linecap="round" stroke-linejoin="round"/>
<path d="M72.8679 176.759H71.2325H63.4351H55.6328H47.8354" stroke="#DEF6FF" stroke-linecap="round" stroke-linejoin="round"/>
<path d="M72.8679 185.827H71.2325H63.4351H55.6328H47.8354" stroke="#DEF6FF" stroke-linecap="round" stroke-linejoin="round"/>
<path d="M72.8679 194.899H71.2325H63.4351H55.6328H47.8354" stroke="#DEF6FF" stroke-linecap="round" stroke-linejoin="round"/>
<path d="M113.49 138.646H84.6562" stroke="#DEF6FF" stroke-linecap="round" stroke-linejoin="round"/>
<path d="M113.49 147.714H84.6562" stroke="#DEF6FF" stroke-linecap="round" stroke-linejoin="round"/>
<path d="M113.49 156.782H84.6562" stroke="#DEF6FF" stroke-linecap="round" stroke-linejoin="round"/>
<path d="M113.49 165.85H84.6562" stroke="#DEF6FF" stroke-linecap="round" stroke-linejoin="round"/>
<path d="M113.49 174.913H84.6562" stroke="#DEF6FF" stroke-linecap="round" stroke-linejoin="round"/>
<path d="M113.49 183.981H84.6562" stroke="#DEF6FF" stroke-linecap="round" stroke-linejoin="round"/>
<path d="M113.49 193.05H84.6562" stroke="#DEF6FF" stroke-linecap="round" stroke-linejoin="round"/>
<path d="M201.578 199.757H184.134H182.104H0.287109" stroke="#263238" stroke-linecap="round" stroke-linejoin="round"/>
<path d="M66.565 199.193C66.3071 199.315 64.4332 199.383 62.0433 199.422C57.1858 199.504 50.1721 199.465 50.1721 199.465C50.1721 199.465 49.7924 199.465 49.6464 197.571C49.5052 195.677 50.4349 194.171 50.542 193.379C51.0482 189.746 49.7875 188.231 49.7681 187.964C49.7681 187.692 56.6066 187.546 56.6066 187.546L58.8455 187.396L58.3588 190.591C58.3296 190.776 58.3101 190.961 58.3101 191.14C58.2177 193.447 59.7801 195.551 62.0871 196.041C62.1115 196.046 62.1699 196.056 62.1894 196.061H62.1942C62.3548 195.91 65.1049 194.637 66.2438 196.396C66.8473 197.323 66.565 199.193 66.565 199.193Z" fill="#263238"/>
<mask id="mask0_78_16627" style="mask-type:luminance" maskUnits="userSpaceOnUse" x="49" y="187" width="18" height="13">
<path d="M66.565 199.193C66.3071 199.315 64.4332 199.383 62.0433 199.422C57.1858 199.504 50.1721 199.465 50.1721 199.465C50.1721 199.465 49.7924 199.465 49.6464 197.571C49.5052 195.677 50.4349 194.171 50.542 193.379C51.0482 189.746 49.7875 188.231 49.7681 187.964C49.7681 187.692 56.6066 187.546 56.6066 187.546L58.8455 187.396L58.3588 190.591C58.3296 190.776 58.3101 190.961 58.3101 191.14C58.2177 193.447 59.7801 195.551 62.0871 196.041C62.1115 196.046 62.1699 196.056 62.1894 196.061H62.1942C62.3548 195.91 65.1049 194.637 66.2438 196.396C66.8473 197.323 66.565 199.193 66.565 199.193Z" fill="white"/>
</mask>
<g mask="url(#mask0_78_16627)">
<path opacity="0.2" d="M66.565 199.193C66.3071 199.315 64.4332 199.383 62.0433 199.422C57.1858 199.504 50.1721 199.465 50.1721 199.465C50.1721 199.465 49.7924 199.465 49.6464 197.571C49.5052 195.677 50.4349 194.171 50.542 193.379C51.0482 189.746 49.7875 188.231 49.7681 187.964C49.7681 187.692 56.6066 187.546 56.6066 187.546L58.8455 187.396L58.3588 190.591C58.3296 190.776 58.3101 190.961 58.3101 191.14C58.2177 193.447 59.7801 195.551 62.0871 196.041C62.1115 196.046 62.1699 196.056 62.1894 196.061H62.1942C62.3548 195.91 65.1049 194.637 66.2438 196.396C66.8473 197.323 66.565 199.193 66.565 199.193Z" fill="white"/>
<path opacity="0.3" d="M62.0433 199.417C57.1858 199.499 50.1721 199.46 50.1721 199.46C50.1721 199.46 49.7924 199.46 49.6464 197.566C49.5052 195.672 50.4349 194.166 50.542 193.375C51.0482 189.741 49.7875 188.226 49.7681 187.959C49.7681 187.687 56.6066 187.541 56.6066 187.541L58.8455 187.391L58.3588 190.587C58.3296 190.771 58.3101 190.956 58.3101 191.135C56.7672 192.408 55.5407 193.433 55.5407 193.433C55.5407 193.433 61.7708 195.502 62.0433 199.417Z" fill="black"/>
</g>
<path d="M66.565 199.193C66.3071 199.315 64.4332 199.383 62.0433 199.422C57.1858 199.504 50.1721 199.465 50.1721 199.465C50.1721 199.465 49.7924 199.465 49.6464 197.571C49.5052 195.677 50.4349 194.171 50.542 193.379C51.0482 189.746 49.7875 188.231 49.7681 187.964C49.7681 187.692 56.6066 187.546 56.6066 187.546L58.8455 187.396L58.3588 190.591C58.3296 190.776 58.3101 190.961 58.3101 191.14C58.2177 193.447 59.7801 195.551 62.0871 196.041C62.1115 196.046 62.1699 196.056 62.1894 196.061H62.1942C62.3548 195.91 65.1049 194.637 66.2438 196.396C66.8473 197.323 66.565 199.193 66.565 199.193Z" stroke="#263238" stroke-linecap="round" stroke-linejoin="round"/>
<path d="M60.3006 183.219C60.5294 184.438 61.0989 184.783 60.729 185.356C60.6754 185.443 60.6219 185.545 60.5683 185.652C60.2812 186.245 59.9745 187.08 58.8453 187.396C57.5166 187.77 51.155 188.115 49.7825 187.945C48.4099 187.775 47.6311 186.478 47.5532 185.399C47.4705 184.326 48.0692 183.631 47.9767 182.412C47.8842 181.198 46.9302 180.839 46.867 180.027C46.8037 179.221 47.5922 178.036 47.5824 177.225C47.563 175.515 47.6116 177.38 47.9524 167.661C48.1422 162.119 49.4856 160.915 47.9524 154.63C47.3975 152.362 41.4399 111.295 41.4399 111.295L59.8139 112.393C59.8139 112.393 60.106 119.387 60.4369 127.649C60.8555 138.159 61.3374 150.72 61.352 153.547C61.3812 159.288 60.8555 167.331 60.4321 174.471C60.252 177.516 59.9453 179.615 60.4418 180.775C60.5002 180.902 60.5343 181.028 60.544 181.164C60.6073 181.961 60.067 181.999 60.3006 183.219Z" fill="#DEF6FF"/>
<mask id="mask1_78_16627" style="mask-type:luminance" maskUnits="userSpaceOnUse" x="41" y="111" width="21" height="77">
<path d="M60.3006 183.219C60.5294 184.438 61.0989 184.783 60.729 185.356C60.6754 185.443 60.6219 185.545 60.5683 185.652C60.2812 186.245 59.9745 187.08 58.8453 187.396C57.5166 187.77 51.155 188.115 49.7825 187.945C48.4099 187.775 47.6311 186.478 47.5532 185.399C47.4705 184.326 48.0692 183.631 47.9767 182.412C47.8842 181.198 46.9302 180.839 46.867 180.027C46.8037 179.221 47.5922 178.036 47.5824 177.225C47.563 175.515 47.6116 177.38 47.9524 167.661C48.1422 162.119 49.4856 160.915 47.9524 154.63C47.3975 152.362 41.4399 111.295 41.4399 111.295L59.8139 112.393C59.8139 112.393 60.106 119.387 60.4369 127.649C60.8555 138.159 61.3374 150.72 61.352 153.547C61.3812 159.288 60.8555 167.331 60.4321 174.471C60.252 177.516 59.9453 179.615 60.4418 180.775C60.5002 180.902 60.5343 181.028 60.544 181.164C60.6073 181.961 60.067 181.999 60.3006 183.219Z" fill="white"/>
</mask>
<g mask="url(#mask1_78_16627)">
<path opacity="0.3" d="M60.5683 185.647C60.2812 186.24 59.9745 187.075 58.8453 187.391C57.5166 187.765 51.155 188.11 49.7825 187.94C48.4099 187.77 47.6311 186.473 47.5532 185.395C47.4705 184.321 48.0692 183.627 47.9767 182.407C47.8842 181.193 46.9302 180.834 46.867 180.023C46.8037 179.216 47.5922 178.031 47.5824 177.22C47.563 175.51 47.6116 177.375 47.9524 167.656C48.1422 162.115 49.4856 160.91 47.9524 154.625C47.3975 152.357 41.4399 111.29 41.4399 111.29L59.8139 112.388C59.8139 112.388 60.106 119.382 60.4369 127.644C58.2223 136.833 55.6524 146.946 54.6887 148.646L56.2073 151.293C56.2073 151.293 52.5763 159.701 52.5763 160.716C52.5763 161.731 53.8174 171.226 54.2263 173.203C54.6303 175.18 52.5763 173.772 52.5763 175.433C52.5763 176.958 52.4108 184.404 60.5683 185.647Z" fill="black"/>
</g>
<path d="M60.3006 183.219C60.5294 184.438 61.0989 184.783 60.729 185.356C60.6754 185.443 60.6219 185.545 60.5683 185.652C60.2812 186.245 59.9745 187.08 58.8453 187.396C57.5166 187.77 51.155 188.115 49.7825 187.945C48.4099 187.775 47.6311 186.478 47.5532 185.399C47.4705 184.326 48.0692 183.631 47.9767 182.412C47.8842 181.198 46.9302 180.839 46.867 180.027C46.8037 179.221 47.5922 178.036 47.5824 177.225C47.563 175.515 47.6116 177.38 47.9524 167.661C48.1422 162.119 49.4856 160.915 47.9524 154.63C47.3975 152.362 41.4399 111.295 41.4399 111.295L59.8139 112.393C59.8139 112.393 60.106 119.387 60.4369 127.649C60.8555 138.159 61.3374 150.72 61.352 153.547C61.3812 159.288 60.8555 167.331 60.4321 174.471C60.252 177.516 59.9453 179.615 60.4418 180.775C60.5002 180.902 60.5343 181.028 60.544 181.164C60.6073 181.961 60.067 181.999 60.3006 183.219Z" stroke="#263238" stroke-linecap="round" stroke-linejoin="round"/>
<path d="M58.8939 125.662C58.8939 125.662 56.6403 127.62 54.7178 127.255" stroke="#263238" stroke-linecap="round" stroke-linejoin="round"/>
<path d="M58.6652 129.339C58.6652 129.339 54.8687 128.426 54.4355 127.658" stroke="#263238" stroke-linecap="round" stroke-linejoin="round"/>
<path d="M53.7979 146.64C53.7979 146.64 55.8518 151.997 58.1297 153.274" stroke="#263238" stroke-linecap="round" stroke-linejoin="round"/>
<path d="M58.232 182.102C58.232 182.102 53.6811 183.505 51.3935 182.48C49.1059 181.456 53.1798 184.826 57.4338 184.53" stroke="#263238" stroke-linecap="round" stroke-linejoin="round"/>
<path d="M51.7876 157.884C51.7876 157.884 51.8265 172.086 55.5403 174.913" stroke="#263238" stroke-linecap="round" stroke-linejoin="round"/>
<path d="M55.5986 189.741C55.5986 189.741 57.0199 189.153 58.3535 189.163" stroke="#263238" stroke-linecap="round" stroke-linejoin="round"/>
<path d="M55.686 191.582C55.686 191.582 57.0051 191.116 57.9542 190.902" stroke="#263238" stroke-linecap="round" stroke-linejoin="round"/>
<path d="M55.9346 193.345L58.0616 192.709" stroke="#263238" stroke-linecap="round" stroke-linejoin="round"/>
<path d="M56.9663 194.788L58.7185 194.099" stroke="#263238" stroke-linecap="round" stroke-linejoin="round"/>
<path d="M58.9473 196.022L59.9694 195.245" stroke="#263238" stroke-linecap="round" stroke-linejoin="round"/>
<path d="M56.0417 187.988C56.0417 187.988 55.8714 192.865 57.4094 194.443C58.9475 196.027 60.578 196.07 60.4369 196.687" stroke="#263238" stroke-linecap="round" stroke-linejoin="round"/>
<path d="M42.0095 187.415C42.0095 187.415 35.1272 187.561 35.098 187.828C35.0737 188.1 36.0715 189.611 34.9422 193.239C34.694 194.031 33.5064 195.531 33.3263 197.426C33.1462 199.32 33.5259 199.315 33.5259 199.315C33.5259 199.315 49.1255 199.402 49.9627 199.043C49.9627 199.043 50.5662 197.178 50.1233 196.255C49.2472 194.414 46.0299 195.901 46.1321 195.92C46.1662 195.93 46.064 195.905 46.0299 195.896C43.6303 195.366 42.4233 192.967 43.241 190.456L44.2777 187.265L42.0144 187.415H42.0095Z" fill="#263238"/>
<mask id="mask2_78_16627" style="mask-type:luminance" maskUnits="userSpaceOnUse" x="33" y="187" width="18" height="13">
<path d="M42.0095 187.415C42.0095 187.415 35.1272 187.561 35.098 187.828C35.0737 188.1 36.0715 189.611 34.9422 193.239C34.694 194.031 33.5064 195.531 33.3263 197.426C33.1462 199.32 33.5259 199.315 33.5259 199.315C33.5259 199.315 49.1255 199.402 49.9627 199.043C49.9627 199.043 50.5662 197.178 50.1233 196.255C49.2472 194.414 46.0299 195.901 46.1321 195.92C46.1662 195.93 46.064 195.905 46.0299 195.896C43.6303 195.366 42.4233 192.967 43.241 190.456L44.2777 187.265L42.0144 187.415H42.0095Z" fill="white"/>
</mask>
<g mask="url(#mask2_78_16627)">
<path opacity="0.25" d="M42.0095 187.415C42.0095 187.415 35.1272 187.561 35.098 187.828C35.0737 188.1 36.0715 189.611 34.9422 193.239C34.694 194.031 33.5064 195.531 33.3263 197.426C33.1462 199.32 33.5259 199.315 33.5259 199.315C33.5259 199.315 49.1255 199.402 49.9627 199.043C49.9627 199.043 50.5662 197.178 50.1233 196.255C49.2472 194.414 46.0299 195.901 46.1321 195.92C46.1662 195.93 46.064 195.905 46.0299 195.896C43.6303 195.366 42.4233 192.967 43.241 190.456L44.2777 187.265L42.0144 187.415H42.0095Z" fill="white"/>
</g>
<path d="M42.0095 187.415C42.0095 187.415 35.1272 187.561 35.098 187.828C35.0737 188.1 36.0715 189.611 34.9422 193.239C34.694 194.031 33.5064 195.531 33.3263 197.426C33.1462 199.32 33.5259 199.315 33.5259 199.315C33.5259 199.315 49.1255 199.402 49.9627 199.043C49.9627 199.043 50.5662 197.178 50.1233 196.255C49.2472 194.414 46.0299 195.901 46.1321 195.92C46.1662 195.93 46.064 195.905 46.0299 195.896C43.6303 195.366 42.4233 192.967 43.241 190.456L44.2777 187.265L42.0144 187.415H42.0095Z" stroke="#263238" stroke-linecap="round" stroke-linejoin="round"/>
<path d="M58.1641 112.388L39.9799 111.29C39.9799 111.29 38.8604 152.289 39.0259 154.552C39.4786 160.827 37.9308 162.027 36.7821 167.564C34.7719 177.269 35.0445 175.403 34.767 177.113C34.6356 177.924 33.6476 179.105 33.5697 179.911C33.4918 180.717 34.3874 181.077 34.2706 182.291C34.1538 183.505 33.4334 184.2 33.3312 185.273C33.229 186.347 33.7839 187.643 35.1224 187.813C36.4657 187.983 42.8857 187.638 44.2826 187.264C45.6795 186.89 46.0543 185.802 46.5167 185.229C46.9839 184.656 46.4777 184.311 46.4534 183.097C46.429 181.883 46.979 181.839 47.0521 181.043C47.0667 180.911 47.0521 180.78 47.018 180.654C46.7162 179.493 47.3879 177.4 48.0937 174.359C49.7437 167.234 51.6565 159.2 52.6154 153.469C53.0923 150.613 54.8105 137.819 56.2074 127.255C56.2074 127.255 57.5508 125.089 58.2371 120.902" fill="#DEF6FF"/>
<mask id="mask3_78_16627" style="mask-type:luminance" maskUnits="userSpaceOnUse" x="33" y="111" width="26" height="77">
<path d="M58.1641 112.388L39.9799 111.29C39.9799 111.29 38.8604 152.289 39.0259 154.552C39.4786 160.827 37.9308 162.027 36.7821 167.564C34.7719 177.269 35.0445 175.403 34.767 177.113C34.6356 177.924 33.6476 179.105 33.5697 179.911C33.4918 180.717 34.3874 181.077 34.2706 182.291C34.1538 183.505 33.4334 184.2 33.3312 185.273C33.229 186.347 33.7839 187.643 35.1224 187.813C36.4657 187.983 42.8857 187.638 44.2826 187.264C45.6795 186.89 46.0543 185.802 46.5167 185.229C46.9839 184.656 46.4777 184.311 46.4534 183.097C46.429 181.883 46.979 181.839 47.0521 181.043C47.0667 180.911 47.0521 180.78 47.018 180.654C46.7162 179.493 47.3879 177.4 48.0937 174.359C49.7437 167.234 51.6565 159.2 52.6154 153.469C53.0923 150.613 54.8105 137.819 56.2074 127.255C56.2074 127.255 57.5508 125.089 58.2371 120.902" fill="white"/>
</mask>
<g mask="url(#mask3_78_16627)">
<path opacity="0.3" d="M39.9409 112.713L39.7803 118.838C39.7803 118.838 44.263 119.26 49.0086 118.838C55.0197 118.304 58.6702 115.647 58.6702 115.647L58.1688 112.388C58.1688 112.388 51.3595 114.219 48.0011 113.961C44.6378 113.704 41.4741 113.301 39.9458 112.713H39.9409Z" fill="black"/>
</g>
<path d="M58.1641 112.388L39.9799 111.29C39.9799 111.29 38.8604 152.289 39.0259 154.552C39.4786 160.827 37.9308 162.027 36.7821 167.564C34.7719 177.269 35.0445 175.403 34.767 177.113C34.6356 177.924 33.6476 179.105 33.5697 179.911C33.4918 180.717 34.3874 181.077 34.2706 182.291C34.1538 183.505 33.4334 184.2 33.3312 185.273C33.229 186.347 33.7839 187.643 35.1224 187.813C36.4657 187.983 42.8857 187.638 44.2826 187.264C45.6795 186.89 46.0543 185.802 46.5167 185.229C46.9839 184.656 46.4777 184.311 46.4534 183.097C46.429 181.883 46.979 181.839 47.0521 181.043C47.0667 180.911 47.0521 180.78 47.018 180.654C46.7162 179.493 47.3879 177.4 48.0937 174.359C49.7437 167.234 51.6565 159.2 52.6154 153.469C53.0923 150.613 54.8105 137.819 56.2074 127.255C56.2074 127.255 57.5508 125.089 58.2371 120.902" stroke="#263238" stroke-linecap="round" stroke-linejoin="round"/>
<path d="M49.1935 161.979C49.1935 161.979 42.9099 172.664 36.6992 176.156" stroke="#263238" stroke-linecap="round" stroke-linejoin="round"/>
<path d="M36.5972 182.102C38.8459 182.388 41.0945 182.67 43.3481 182.956C43.8494 183.02 44.4627 183.214 44.414 183.729C44.3702 184.176 43.8445 184.477 43.3968 184.637C41.8295 185.2 40.1697 185.312 38.6998 184.948" stroke="#263238" stroke-linecap="round" stroke-linejoin="round"/>
<path d="M36.7969 178.867C39.1234 180.222 41.8686 180.975 44.7549 181.048" stroke="#263238" stroke-linecap="round" stroke-linejoin="round"/>
<path d="M41.0264 159.42C41.0264 159.42 44.4433 159.546 46.1858 159.391C44.8862 161.168 42.803 161.941 40.7441 162.043" stroke="#263238" stroke-linecap="round" stroke-linejoin="round"/>
<path d="M43.5865 116.356C43.5865 116.356 43.0851 133.813 42.9245 141.074C42.7639 148.335 42.4378 156.801 42.4378 156.801C42.4378 156.801 41.8586 157.676 42.1311 158.564L42.4037 159.458L42.2528 161.984C42.2528 161.984 41.5714 162.742 41.805 163.664C42.0387 164.582 40.1502 170.979 40.1502 170.979L39.824 171.407C39.1378 172.3 38.9382 173.413 39.3081 174.311L38.6316 179.79L38.6218 179.8C37.8625 180.523 37.6776 181.602 38.1935 182.32L37.5559 185.172C36.8842 185.822 36.7187 186.789 37.1714 187.435L37.2833 187.595" stroke="#263238" stroke-linecap="round" stroke-linejoin="round"/>
<path d="M75.0776 84.1833C74.5811 85.247 70.4439 88.0787 70.4439 88.0787C70.4439 87.6124 70.5413 87.151 70.736 86.7284C71.0329 86.2767 71.2422 85.8347 71.4125 85.5676C71.4612 84.8293 71.2178 84.1007 70.736 83.5373C70.1714 82.9156 69.7284 84.4747 69.4802 85.519C69.2368 86.5584 67.6014 88.1418 67.6793 88.8995C67.8156 89.7884 68.0006 90.6723 68.2293 91.5418C68.2293 91.5418 61.2935 93.9752 60.5293 92.4937C58.9036 89.3658 57.1125 86.3253 55.1558 83.3867C53.5253 85.6598 54.8102 88.7975 55.7302 92.654C56.6501 96.5106 59.478 101.907 59.478 101.907C64.5497 99.4831 70.3125 93.1446 70.3125 93.1446C70.3125 93.1446 71.6656 92.5423 73.34 91.9692C75.0143 91.3961 74.7709 90.9055 75.0386 89.2638C75.3112 87.6221 76.713 85.383 76.6302 84.533C76.5475 83.683 75.5643 83.1196 75.0727 84.1833H75.0776Z" fill="white" stroke="#263238" stroke-linecap="round" stroke-linejoin="round"/>
<path d="M58.6753 92.3818C58.6121 95.8984 59.3081 107.822 60.0625 112.553L39.4204 112.034V111.689C40.9341 106.093 39.9509 100.056 37.5611 94.7715C36.2956 91.9787 35.731 88.4087 35.0788 85.0282C33.419 76.4215 37.5854 73.7598 41.0655 73.4295C42.4089 73.3664 42.5257 72.4678 43.5235 72.5309C44.4191 72.5844 44.9837 72.5115 45.5093 72.2881C45.9425 74.0512 48.3421 79.2289 49.1647 79.8214C49.9872 80.414 51.1797 80.6034 52.012 80.0254C52.8395 79.4474 53.0682 78.3449 53.258 77.354C53.3554 76.8295 53.4868 76.2757 53.7156 75.7949C54.9324 76.402 57.0545 77.1209 58.6315 79.9526C60.559 86.2036 59.5076 82.1965 61.0068 91.3667C61.2355 92.7704 58.6753 92.3867 58.6753 92.3867V92.3818Z" fill="white" stroke="#263238" stroke-linecap="round" stroke-linejoin="round"/>
<path d="M55.4188 76.1103L53.4232 75.4158C54.7763 80.0494 53.6082 85.3194 50.1816 83.2405C46.7599 81.1617 45.4019 75.1681 44.3798 72.5452C43.8444 72.3801 41.6687 72.2975 40.5395 73.1669C41.7174 75.3186 44.9201 79.5929 44.5404 83.0657C44.117 86.9465 41.0555 90.4047 35.3315 86.4996C36.1103 92.3864 38.5878 96.6315 39.0599 98.618C40.8024 105.884 39.6391 106.899 38.8262 114.088C47.0909 118.304 57.1126 116.206 61.5029 114.928C60.1644 107.642 60.7485 89.1856 55.4139 76.1152L55.4188 76.1103Z" fill="#DEF6FF"/>
<mask id="mask4_78_16627" style="mask-type:luminance" maskUnits="userSpaceOnUse" x="35" y="72" width="27" height="45">
<path d="M55.4188 76.1103L53.4232 75.4158C54.7763 80.0494 53.6082 85.3194 50.1816 83.2405C46.7599 81.1617 45.4019 75.1681 44.3798 72.5452C43.8444 72.3801 41.6687 72.2975 40.5395 73.1669C41.7174 75.3186 44.9201 79.5929 44.5404 83.0657C44.117 86.9465 41.0555 90.4047 35.3315 86.4996C36.1103 92.3864 38.5878 96.6315 39.0599 98.618C40.8024 105.884 39.6391 106.899 38.8262 114.088C47.0909 118.304 57.1126 116.206 61.5029 114.928C60.1644 107.642 60.7485 89.1856 55.4139 76.1152L55.4188 76.1103Z" fill="white"/>
</mask>
<g mask="url(#mask4_78_16627)">
<path opacity="0.3" d="M42.8076 107.03C42.8076 107.03 56.3046 112.907 58.232 107.205C54.6838 107.973 51.0382 108.123 47.4413 107.647L42.8076 107.035" fill="black"/>
<path opacity="0.3" d="M38.0278 94.3192L47.8305 86.543C47.8305 86.543 49.7677 91.8955 44.5597 94.9506C41.0309 97.0246 38.0229 94.3143 38.0229 94.3143L38.0278 94.3192Z" fill="black"/>
</g>
<path d="M55.4188 76.1103L53.4232 75.4158C54.7763 80.0494 53.6082 85.3194 50.1816 83.2405C46.7599 81.1617 45.4019 75.1681 44.3798 72.5452C43.8444 72.3801 41.6687 72.2975 40.5395 73.1669C41.7174 75.3186 44.9201 79.5929 44.5404 83.0657C44.117 86.9465 41.0555 90.4047 35.3315 86.4996C36.1103 92.3864 38.5878 96.6315 39.0599 98.618C40.8024 105.884 39.6391 106.899 38.8262 114.088C47.0909 118.304 57.1126 116.206 61.5029 114.928C60.1644 107.642 60.7485 89.1856 55.4139 76.1152L55.4188 76.1103Z" stroke="#263238" stroke-linecap="round" stroke-linejoin="round"/>
<path d="M58.232 107.012C58.1005 107.75 57.5311 108.352 56.8643 108.692" stroke="#263238" stroke-linecap="round" stroke-linejoin="round"/>
<path d="M54.6887 109.217C50.6099 109.596 46.4289 108.76 42.8125 106.847" stroke="#263238" stroke-linecap="round" stroke-linejoin="round"/>
<path d="M73.598 76.3003L69.3878 87.5445C69.232 87.9476 69.2807 88.4091 69.5094 88.7733L70.2931 90.0265C70.6776 90.6433 72.0356 90.8279 72.6196 90.4296C72.8241 90.2887 72.9847 90.0896 73.0869 89.8516L77.2533 78.6172C77.4772 78.0926 77.3555 77.4758 76.9515 77.0823L75.6373 75.8146C75.1263 75.3144 74.3232 75.3435 73.8462 75.8826C73.7391 76.0041 73.6564 76.1449 73.598 76.3003Z" fill="#263238"/>
<path d="M35.3315 79.3311C35.3315 79.3311 35.3315 81.3662 36.5289 84.2027C38.5634 89.0209 46.3073 101.013 48.0059 101.824C49.7046 102.635 67.0662 93.3097 68.3219 92.0323C69.5777 90.7549 68.8768 89.0598 68.8768 89.0598C68.8768 89.0598 68.8574 90.2546 69.8746 90.0361C70.5171 89.8952 69.9866 87.9135 69.9866 87.9135C69.9866 87.9135 71.1644 87.083 70.045 85.5481C70.045 85.5481 71.6317 85.5481 71.5246 84.3533C71.4808 83.8773 66.8082 83.8044 66.0927 85.145C65.2215 86.777 64.3551 91.0366 64.3551 91.0366C64.3551 91.0366 53.0387 93.9509 50.6975 94.3831L44.5356 80.9728" fill="white"/>
<path d="M35.3315 79.3311C35.3315 79.3311 35.3315 81.3662 36.5289 84.2027C38.5634 89.0209 46.3073 101.013 48.0059 101.824C49.7046 102.635 67.0662 93.3097 68.322 92.0323C69.5777 90.7549 68.8768 89.0598 68.8768 89.0598C68.8768 89.0598 68.8574 90.2546 69.8746 90.0361C70.5171 89.8952 69.9866 87.9135 69.9866 87.9135C69.9866 87.9135 71.1644 87.083 70.045 85.5481C70.045 85.5481 71.6317 85.5481 71.5246 84.3533C71.4808 83.8773 66.8082 83.8044 66.0927 85.145C65.2215 86.777 64.3551 91.0366 64.3551 91.0366C64.3551 91.0366 53.0387 93.9509 50.6975 94.3831L44.5356 80.9728" stroke="#263238" stroke-linecap="round" stroke-linejoin="round"/>
<path d="M68.4971 92.7416C68.8475 91.8527 69.4559 91.0902 70.2444 90.551C71.1595 90.1139 72.4201 89.9827 73.4179 89.7885C73.4179 89.7885 74.1967 86.5002 74.6201 86.5877C75.9099 86.8596 74.9024 89.8808 74.9024 89.8808" fill="white"/>
<path d="M68.4971 92.7416C68.8475 91.8527 69.4559 91.0902 70.2444 90.551C71.1595 90.1139 72.4201 89.9827 73.4179 89.7885C73.4179 89.7885 74.1967 86.5002 74.6201 86.5877C75.9099 86.8596 74.9024 89.8808 74.9024 89.8808" stroke="#263238" stroke-linecap="round" stroke-linejoin="round"/>
<path d="M76.4603 85.4071C76.1147 85.0623 75.5599 85.038 75.1851 85.3537C74.5621 85.922 73.6081 87.5297 72.5908 88.3894" stroke="#263238" stroke-linecap="round" stroke-linejoin="round"/>
<path d="M67.4409 88.8654C67.7184 88.2534 69.6896 87.214 70.0839 88.5448" stroke="#263238" stroke-linecap="round" stroke-linejoin="round"/>
<path d="M67.4116 87.2428C67.4116 87.2428 69.6944 85.9994 70.1519 87.5391" stroke="#263238" stroke-linecap="round" stroke-linejoin="round"/>
<path d="M67.7139 85.7617C67.7139 85.7617 68.6679 85.5771 68.8723 85.5577C69.6316 85.48 70.4493 85.3877 70.8581 85.3877" stroke="#263238" stroke-linecap="round" stroke-linejoin="round"/>
<path d="M56.2024 127.26C56.2024 127.26 53.1652 124.584 51.3936 124.069L56.2024 127.26Z" fill="#DEF6FF"/>
<path d="M56.2024 127.26C56.2024 127.26 53.1652 124.584 51.3936 124.069" stroke="#263238" stroke-linecap="round" stroke-linejoin="round"/>
<path d="M40.8467 189.766C40.8467 189.766 42.3166 189.168 43.6502 189.178" stroke="#263238" stroke-linecap="round" stroke-linejoin="round"/>
<path d="M40.7734 191.641C40.7734 191.641 42.1314 191.165 43.1 190.946" stroke="#263238" stroke-linecap="round" stroke-linejoin="round"/>
<path d="M40.8706 193.433L43.0511 192.787" stroke="#263238" stroke-linecap="round" stroke-linejoin="round"/>
<path d="M41.7808 194.9L43.5865 194.2" stroke="#263238" stroke-linecap="round" stroke-linejoin="round"/>
<path d="M43.6548 196.158L44.7402 195.366" stroke="#263238" stroke-linecap="round" stroke-linejoin="round"/>
<path d="M41.4404 187.988C41.4404 187.988 40.8466 192.942 42.2532 194.55C43.655 196.158 45.2806 196.206 45.086 196.828" stroke="#263238" stroke-linecap="round" stroke-linejoin="round"/>
<path d="M53.2383 75.2166C53.2383 75.2166 55.2923 83.2114 51.9972 83.8136C47.5047 84.6394 44.3848 72.5404 44.3848 72.5404C45.0711 72.4918 45.1538 72.2101 45.7525 71.8652C45.7525 71.8652 50.7755 81.8611 53.2432 75.2118L53.2383 75.2166Z" fill="#263238"/>
<path d="M39.5759 73.7017C39.5759 73.7017 34.8789 74.6342 34.8595 81.5993C34.84 88.5158 37.9405 94.3734 37.9405 94.3734C37.9405 94.3734 41.6104 94.0771 43.9272 92.382C48.7847 88.8315 48.006 86.8401 48.006 86.8401L45.4555 81.7984C45.4555 81.7984 44.6184 78.5733 40.9776 73.4248L39.5759 73.6968V73.7017Z" fill="#263238"/>
<path d="M55.7109 76.3867C58.2711 83.6383 58.3831 86.3534 58.8455 89.7C58.8455 89.7 61.3521 89.1997 61.7366 88.6606C61.7366 88.6606 60.5198 82.7252 59.2056 79.6555C58.3733 77.7078 57.2685 77.0181 55.7109 76.3867Z" fill="#263238"/>
<path d="M53.2336 68.1542C53.2336 68.1542 52.8686 74.7987 52.8929 75.333C52.9367 76.3433 53.6668 77.6741 52.9951 78.427C52.3186 79.1798 51.1115 79.2672 50.177 78.8787C49.2425 78.4901 48.5221 77.7227 47.8796 76.9407C46.7261 75.5322 45.7137 74.0022 44.8911 72.3848C45.1247 72.2099 45.7672 71.4522 46.0787 70.4419C46.0787 70.4419 46.2053 69.8785 46.215 69.8542C46.4097 68.5185 46.3367 67.0711 46.1566 65.7354C45.7964 63.03 44.9836 60.7715 44.9836 60.7715L53.2336 68.1591V68.1542Z" fill="white" stroke="#263238" stroke-linecap="round" stroke-linejoin="round"/>
<path d="M46.3125 74.498C47.7435 74.9838 48.7851 75.4452 49.6466 75.9163L46.3125 74.498Z" fill="#263238"/>
<path d="M46.3125 74.498C47.7435 74.9838 48.7851 75.4452 49.6466 75.9163" stroke="#263238" stroke-linecap="round" stroke-linejoin="round"/>
<path d="M45.2899 52.0818C45.2899 52.0818 41.143 54.4472 43.2943 60.6206C45.4456 66.7939 50.2204 73.691 54.5572 72.7681C58.8939 71.8453 60.0231 63.2434 57.7258 57.512C55.4284 51.7807 49.5926 48.5993 45.2899 52.0818Z" fill="white" stroke="#263238" stroke-linecap="round" stroke-linejoin="round"/>
<path d="M57.6624 63.4771C57.6916 63.9871 57.492 64.4145 57.2195 64.4291C56.9469 64.4437 56.6987 64.0454 56.6695 63.5354C56.6403 63.0254 56.8301 62.6077 57.1124 62.5883C57.3898 62.5737 57.6332 62.9671 57.6624 63.4723V63.4771Z" fill="#263238"/>
<path d="M53.428 63.2828C53.4572 63.7831 53.2674 64.2105 52.9949 64.2299C52.7223 64.2445 52.4741 63.8462 52.4449 63.3459C52.4156 62.8457 52.6055 62.4085 52.8878 62.3939C53.1652 62.3794 53.4037 62.7728 53.4329 63.2876L53.428 63.2828Z" fill="#263238"/>
<path d="M55.0244 53.1459C52.2452 50.4503 48.4634 49.61 45.4408 52.058C45.4408 52.058 41.2939 54.4234 43.4452 60.5967C43.966 62.0684 44.5939 63.5012 45.3288 64.8806L45.4067 64.9486C45.4067 64.9486 44.0439 63.5935 49.4514 60.6113C51.228 59.6059 53.8514 53.3694 55.0293 53.1459H55.0244Z" fill="#263238" stroke="#263238" stroke-linecap="round" stroke-linejoin="round"/>
<path d="M50.6826 55.1621C50.6826 55.1621 51.0623 50.8588 54.0605 50.713C55.6229 50.6353 57.6866 52.7287 57.9446 53.8361C58.2999 55.3613 59.4973 56.5513 61.0402 56.8475C61.0402 56.8475 60.1689 59.7666 58.48 59.9755C55.691 60.3155 54.2455 59.6646 52.4494 57.2118C51.9335 56.5075 51.3835 55.8324 50.7508 55.2301L50.6826 55.167V55.1621Z" fill="#263238" stroke="#263238" stroke-linecap="round" stroke-linejoin="round"/>
<path d="M46.2146 63.4286C46.2146 63.4286 44.5743 60.0578 43.1141 63.7686C42.204 66.0806 45.8447 67.9263 47.0907 67.3192" fill="white"/>
<path d="M46.2146 63.4286C46.2146 63.4286 44.5743 60.0578 43.1141 63.7686C42.204 66.0806 45.8447 67.9263 47.0907 67.3192" stroke="#263238" stroke-linecap="round" stroke-linejoin="round"/>
<path d="M55.9786 61.3887C55.4189 62.0055 55.1901 62.8555 55.3702 63.6666C55.4967 64.5506 55.7936 65.3958 56.2463 66.168L54.168 66.8432" stroke="#263238" stroke-linecap="round" stroke-linejoin="round"/>
<path d="M52.3184 68.3535C52.99 69.0141 53.983 69.2326 54.8688 68.9169" stroke="#263238" stroke-linecap="round" stroke-linejoin="round"/>
<path d="M50.0063 61.3303C50.0063 61.3303 51.4568 59.7178 53.2285 60.4949" stroke="#263238" stroke-linecap="round" stroke-linejoin="round"/>
<path d="M56.7866 60.8982C56.7866 60.8982 58.6995 60.3057 58.4561 61.9862" stroke="#263238" stroke-linecap="round" stroke-linejoin="round"/>
<path d="M46.1854 65.2792C45.8496 65.3375 45.5478 65.0558 45.4066 64.7498C45.2655 64.4438 45.2265 64.0941 45.0854 63.7881C44.9442 63.4821 44.6376 63.2004 44.3018 63.2587" fill="#263238"/>
<path d="M46.1854 65.2792C45.8496 65.3375 45.5478 65.0558 45.4066 64.7498C45.2655 64.4438 45.2265 64.0941 45.0854 63.7881C44.9442 63.4821 44.6376 63.2004 44.3018 63.2587" stroke="#263238" stroke-linecap="round" stroke-linejoin="round"/>
<path d="M52.2551 51.9511C52.041 51.0817 51.7051 50.2463 51.2573 49.474C51.2573 49.4934 52.0507 49.27 52.4887 49.1777C52.4157 50.0277 52.3281 51.1011 52.2551 51.9511Z" fill="#263238" stroke="#263238" stroke-linecap="round" stroke-linejoin="round"/>
<path d="M53.0875 72.5788L53.1216 74.0505C52.8539 74.1768 52.518 74.235 52.0995 74.1865C50.2304 73.9728 48.3468 69.8345 48.23 69.5771C48.23 69.5771 48.2251 69.5771 48.2251 69.5674C48.2397 69.5771 48.2543 69.5965 48.264 69.6062C50.4786 72.0348 52.1189 72.5593 53.0875 72.5739V72.5788Z" fill="#263238"/>
<path d="M116.23 86.5635H128.525" stroke="#263238" stroke-linecap="round" stroke-linejoin="round"/>
<path d="M102.121 86.5635H114.61" stroke="#263238" stroke-linecap="round" stroke-linejoin="round"/>
<path d="M95.4668 86.5635H99.3071" stroke="#263238" stroke-linecap="round" stroke-linejoin="round"/>
<path d="M105.566 93.2275H128.477" stroke="#263238" stroke-linecap="round" stroke-linejoin="round"/>
<path d="M99.3071 93.2275H102.12" stroke="#263238" stroke-linecap="round" stroke-linejoin="round"/>
<path d="M115.822 99.8916H128.428" stroke="#263238" stroke-linecap="round" stroke-linejoin="round"/>
<path d="M103.147 99.8916H113.953" stroke="#263238" stroke-linecap="round" stroke-linejoin="round"/>
<path d="M114.094 106.556H128.379" stroke="#263238" stroke-linecap="round" stroke-linejoin="round"/>
<path d="M106.983 106.556H112.064" stroke="#263238" stroke-linecap="round" stroke-linejoin="round"/>
<path d="M156.113 106.798H120.305L122.101 86.3105H157.909L156.113 106.798Z" fill="white" stroke="#263238" stroke-linecap="round" stroke-linejoin="round"/>
<path d="M157.909 86.3105H122.101" stroke="#263238" stroke-linecap="round" stroke-linejoin="round"/>
<path d="M156.113 106.797H120.305L132.546 95.1987L138.766 100.493L146.043 95.0967L156.113 106.797Z" fill="white" stroke="#263238" stroke-linecap="round" stroke-linejoin="round"/>
<path d="M157.909 86.3105L146.043 95.097L138.766 100.493L132.546 95.199L122.101 86.3105H157.909Z" fill="white" stroke="#263238" stroke-linecap="round" stroke-linejoin="round"/>
<path d="M92.0402 86.5635H83.0503" stroke="#263238" stroke-linecap="round" stroke-linejoin="round"/>
<path d="M126.486 63.0892C119.307 68.9274 106.068 72.4731 106.068 72.4731L112.741 65.338C106.608 63.3612 102.169 57.6201 102.169 50.8396C102.169 42.0726 109.596 35.0347 118.518 35.6564C126.15 36.1858 132.283 42.4418 132.662 50.0722C132.925 55.3616 130.482 60.0972 126.588 63.0163" fill="white"/>
<path d="M126.486 63.0892C119.307 68.9274 106.068 72.4731 106.068 72.4731L112.741 65.338C106.608 63.3612 102.169 57.6201 102.169 50.8396C102.169 42.0726 109.596 35.0347 118.518 35.6564C126.15 36.1858 132.283 42.4418 132.662 50.0722C132.925 55.3616 130.482 60.0972 126.588 63.0163" stroke="#263238" stroke-linecap="round" stroke-linejoin="round"/>
<path d="M126.851 44.2826C129.332 44.2826 131.343 42.2754 131.343 39.7995C131.343 37.3236 129.332 35.3164 126.851 35.3164C124.37 35.3164 122.358 37.3236 122.358 39.7995C122.358 42.2754 124.37 44.2826 126.851 44.2826Z" fill="#DEF6FF" stroke="#263238" stroke-linecap="round" stroke-linejoin="round"/>
<path d="M124.247 38.7985L126.851 41.7225L132.775 34.7283L132.565 34.5049L126.851 39.4105L125.337 37.7688L124.247 38.7985Z" fill="#263238" stroke="#263238" stroke-linecap="round" stroke-linejoin="round"/>
<path d="M109.523 47.1523H126.296" stroke="#263238" stroke-linecap="round" stroke-linejoin="round"/>
<path d="M109.144 51.4756H125.917" stroke="#263238" stroke-linecap="round" stroke-linejoin="round"/>
<path d="M108.764 55.7979H125.542" stroke="#263238" stroke-linecap="round" stroke-linejoin="round"/>
<path d="M161.604 9.01063V16.6751L182.616 0.510742L161.604 9.01063Z" fill="#DEF6FF" stroke="#263238" stroke-linecap="round" stroke-linejoin="round"/>
<path d="M161.603 9.01019L183.097 0.243164L153.748 3.27884L161.603 9.01019Z" fill="#DEF6FF" stroke="#263238" stroke-linecap="round" stroke-linejoin="round"/>
<path d="M164.129 10.5985L174.248 18.0686L183.097 0.243164L164.129 10.5985Z" fill="#DEF6FF" stroke="#263238" stroke-linecap="round" stroke-linejoin="round"/>
<path d="M164.13 10.5986L161.604 16.6748L166.987 12.7066L164.13 10.5986Z" fill="#DEF6FF" stroke="#263238" stroke-linecap="round" stroke-linejoin="round"/>
<path d="M81.084 74.8286C81.1375 74.6732 81.1959 74.5226 81.2495 74.3721" stroke="#263238" stroke-linecap="round" stroke-linejoin="round"/>
<path d="M81.8872 72.5406C86.4138 59.0525 85.6009 50.9461 92.9505 37.8805C94.435 35.2383 101.804 22.7361 112.313 18.2822C117.774 15.9654 121.249 19.4236 119.842 21.8667C116.703 27.3212 105.172 20.7836 116.703 14.3382C127.367 8.37375 150.078 20.0356 160.727 16.6891" stroke="#263238" stroke-linecap="round" stroke-linejoin="round"/>
<path d="M161.632 16.3446C161.783 16.2815 161.929 16.2135 162.075 16.1406" stroke="#263238" stroke-linecap="round" stroke-linejoin="round"/>
</g>
<defs>
<clipPath id="clip0_78_16627">
<rect width="205" height="200" fill="white"/>
</clipPath>
</defs>
</svg>
